<svg xmlns="http://www.w3.org/2000/svg" viewBox="0 0 512 512" fill="none">
  <defs>
    <linearGradient id="ag" x1="0%" y1="100%" x2="100%" y2="0%">
      <stop offset="0%" stop-color="#10b981"/>
      <stop offset="50%" stop-color="#06b6d4"/>
      <stop offset="100%" stop-color="#7c3aed"/>
    </linearGradient>
    <linearGradient id="tile-bg" x1="0%" y1="0%" x2="100%" y2="100%">
      <stop offset="0%" stop-color="#12141c"/>
      <stop offset="100%" stop-color="#0a0c14"/>
    </linearGradient>
  </defs>
  <!-- Dark app icon tile -->
  <rect x="16" y="16" width="480" height="480" rx="96" ry="96" fill="url(#tile-bg)"/>
  <rect x="16" y="16" width="480" height="480" rx="96" ry="96" fill="none" stroke="rgba(255,255,255,0.1)" stroke-width="2"/>
  <!-- Centered mark -->
  <g transform="translate(96, 72) scale(0.72)">
    <path d="M 144 400 C 144 400, 128 300, 136 240 C 144 180, 152 160, 156 128 C 160 108, 156 96, 160 88"
          stroke="url(#ag)" stroke-width="36" stroke-linecap="round" stroke-linejoin="round" fill="none"/>
    <path d="M 168 112 C 192 160, 228 240, 264 296 C 300 352, 332 380, 348 400"
          stroke="url(#ag)" stroke-width="32" stroke-linecap="round" stroke-linejoin="round" fill="none"/>
    <path d="M 352 400 C 352 392, 356 340, 360 280 C 364 220, 368 160, 364 120 C 362 100, 358 92, 356 84"
          stroke="url(#ag)" stroke-width="36" stroke-linecap="round" stroke-linejoin="round" fill="none"/>
    <circle cx="356" cy="76" r="10" fill="url(#ag)"/>
  </g>
</svg>
