<svg xmlns="http://www.w3.org/2000/svg" viewBox="0 0 512 160" fill="none">
  <defs>
    <linearGradient id="wg" x1="0%" y1="100%" x2="100%" y2="0%">
      <stop offset="0%" stop-color="#10b981"/>
      <stop offset="50%" stop-color="#06b6d4"/>
      <stop offset="100%" stop-color="#7c3aed"/>
    </linearGradient>
  </defs>
  <!-- "NaLI" wordmark in clean geometric style -->
  <!-- N -->
  <path d="M 24 128 L 24 32 L 32 32 L 88 108 L 88 32 L 96 32 L 96 128 L 88 128 L 32 52 L 32 128 Z" fill="url(#wg)"/>
  <!-- a -->
  <path d="M 128 128 L 128 72 C 128 56, 140 46, 160 46 C 180 46, 192 56, 192 72 L 192 128 L 180 128 L 180 118 C 174 126, 164 130, 152 130 C 136 130, 126 120, 126 108 C 126 94, 138 86, 156 86 L 180 86 L 180 72 C 180 62, 172 56, 160 56 C 148 56, 140 62, 140 72 L 140 128 Z M 180 96 L 156 96 C 144 96, 138 102, 138 108 C 138 116, 144 122, 154 122 C 168 122, 180 112, 180 100 Z" fill="url(#wg)"/>
  <!-- L -->
  <path d="M 224 128 L 224 32 L 236 32 L 236 118 L 296 118 L 296 128 Z" fill="url(#wg)"/>
  <!-- I -->
  <path d="M 320 128 L 320 32 L 332 32 L 332 128 Z" fill="url(#wg)"/>
</svg>
