<svg viewBox="0 0 240 320" xmlns="http://www.w3.org/2000/svg"><g transform="translate(20,10)">
    <g fill="none" stroke="#0E3A5C" stroke-width="3" stroke-linecap="round" stroke-linejoin="round">
      <line x1="87.28" y1="23.30" x2="78.48" y2="21.43" stroke="#0E3A5C" stroke-width="1.6" stroke-linecap="round"/><line x1="88.22" y1="20.51" x2="83.69" y2="18.39" stroke="#0E3A5C" stroke-width="1.6" stroke-linecap="round"/><line x1="89.76" y1="18.00" x2="82.66" y2="12.46" stroke="#0E3A5C" stroke-width="1.6" stroke-linecap="round"/><line x1="91.82" y1="15.90" x2="88.67" y2="12.01" stroke="#0E3A5C" stroke-width="1.6" stroke-linecap="round"/><line x1="94.30" y1="14.32" x2="90.36" y2="6.23" stroke="#0E3A5C" stroke-width="1.6" stroke-linecap="round"/><line x1="97.08" y1="13.33" x2="95.95" y2="8.46" stroke="#0E3A5C" stroke-width="1.6" stroke-linecap="round"/><line x1="100.00" y1="13.00" x2="100.00" y2="4.00" stroke="#0E3A5C" stroke-width="1.6" stroke-linecap="round"/><line x1="102.92" y1="13.33" x2="104.05" y2="8.46" stroke="#0E3A5C" stroke-width="1.6" stroke-linecap="round"/><line x1="105.70" y1="14.32" x2="109.64" y2="6.23" stroke="#0E3A5C" stroke-width="1.6" stroke-linecap="round"/><line x1="108.18" y1="15.90" x2="111.33" y2="12.01" stroke="#0E3A5C" stroke-width="1.6" stroke-linecap="round"/><line x1="110.24" y1="18.00" x2="117.34" y2="12.46" stroke="#0E3A5C" stroke-width="1.6" stroke-linecap="round"/><line x1="111.78" y1="20.51" x2="116.31" y2="18.39" stroke="#0E3A5C" stroke-width="1.6" stroke-linecap="round"/><line x1="112.72" y1="23.30" x2="121.52" y2="21.43" stroke="#0E3A5C" stroke-width="1.6" stroke-linecap="round"/>
      <path d="M100 40 C 82 76 56 116 46 164 C 38 202 50 228 78 238 L 122 238 C 150 228 162 202 154 164 C 144 116 118 76 100 40 Z"/>
    </g>
    <g fill="#0E3A5C">
      <path d="M97 238 L97 96 C97 86 103 86 103 96 L103 238 Z"/>
      <path d="M100 60 C96 70 96 80 100 88 C104 80 104 70 100 60 Z"/>
      <circle cx="70" cy="132" r="4.2" fill="#0E3A5C"/><circle cx="130" cy="132" r="4.2" fill="#0E3A5C"/><circle cx="62" cy="162" r="4.2" fill="#0E3A5C"/><circle cx="138" cy="162" r="4.2" fill="#0E3A5C"/><circle cx="82" cy="118" r="4.2" fill="#0E3A5C"/><circle cx="118" cy="118" r="4.2" fill="#0E3A5C"/><circle cx="76" cy="150" r="4.2" fill="#0E3A5C"/><circle cx="124" cy="150" r="4.2" fill="#0E3A5C"/>
      <path transform="translate(78, 96)" fill="#0E3A5C" d="M0 0 C4 -3 9 -3 12 1 C14 -1 17 -1 18 1 C16 3 13 3 12 2 C10 5 4 6 1 3 Z"/><path transform="translate(122, 96) scale(-1,1)" fill="#0E3A5C" d="M0 0 C4 -3 9 -3 12 1 C14 -1 17 -1 18 1 C16 3 13 3 12 2 C10 5 4 6 1 3 Z"/>
      <path d="M52 196 C54 190 60 188 66 188 C70 184 76 184 80 188 C84 188 88 190 90 194 L90 200 L86 200 L86 205 L82 205 L82 200 L66 200 L66 205 L62 205 L62 200 L56 200 C53 200 51 199 52 196 Z"/>
      <path transform="translate(200,0) scale(-1,1)" d="M52 196 C54 190 60 189 66 189 C68 184 72 182 76 184 C73 187 75 189 79 188 C84 188 88 190 90 194 L90 200 L86 200 L86 205 L82 205 L82 200 L66 200 L66 205 L62 205 L62 200 L56 200 C53 200 51 199 52 196 Z"/>
      <rect x="58" y="246" width="84" height="6" rx="1"/>
      <path d="M92 246 L92 224 C92 218 108 218 108 224 L108 246 Z"/>
      <rect x="80" y="226" width="6" height="20" rx="1"/>
      <rect x="114" y="226" width="6" height="20" rx="1"/>
    </g>
    <g fill="none" stroke="#0E3A5C" stroke-width="2.2" stroke-linecap="round">
      <path d="M100 104 C84 104 74 116 70 132"/>
      <path d="M100 104 C116 104 126 116 130 132"/>
      <path d="M100 132 C80 134 66 146 62 162"/>
      <path d="M100 132 C120 134 134 146 138 162"/>
    </g></g></svg>
