<svg xmlns="http://www.w3.org/2000/svg" viewBox="0 0 512 512" fill="none">
  <defs>
    <linearGradient id="nali-grad" x1="0%" y1="100%" x2="100%" y2="0%">
      <stop offset="0%" stop-color="#10b981"/>
      <stop offset="50%" stop-color="#06b6d4"/>
      <stop offset="100%" stop-color="#7c3aed"/>
    </linearGradient>
  </defs>
  <!-- Nature Intelligence Mark: Abstract contour N -->
  <!-- Stroke 1: Left vertical rise with terrain curve -->
  <path d="M 144 400 C 144 400, 128 300, 136 240 C 144 180, 152 160, 156 128 C 160 108, 156 96, 160 88"
        stroke="url(#nali-grad)" stroke-width="36" stroke-linecap="round" stroke-linejoin="round" fill="none"/>
  <!-- Stroke 2: Diagonal connector with flowing contour -->
  <path d="M 168 112 C 192 160, 228 240, 264 296 C 300 352, 332 380, 348 400"
        stroke="url(#nali-grad)" stroke-width="32" stroke-linecap="round" stroke-linejoin="round" fill="none"/>
  <!-- Stroke 3: Right vertical rise -->
  <path d="M 352 400 C 352 392, 356 340, 360 280 C 364 220, 368 160, 364 120 C 362 100, 358 92, 356 84"
        stroke="url(#nali-grad)" stroke-width="36" stroke-linecap="round" stroke-linejoin="round" fill="none"/>
  <!-- Intelligence node dot -->
  <circle cx="356" cy="76" r="10" fill="url(#nali-grad)"/>
</svg>
