<svg xmlns="http://www.w3.org/2000/svg" viewBox="0 0 100 100" fill="none" role="img" aria-label="NaLI">
  <rect width="100" height="100" rx="20" fill="#1e3525"/>
  <path d="M11 72 C8 60 13 48 23 39 C31 32 32 18 40 17 C49 16 58 40 66 40 C76 40 68 18 82 16 C95 15 94 34 89 45 C85 53 78 59 74 68 C70 78 66 84 59 83 C50 82 41 63 35 61 C28 59 31 76 24 80 C18 83 13 79 11 72 Z" stroke="#f5f0e8" stroke-linejoin="round" stroke-width="5.5"/>
  <path d="M18 69 C17 61 20 53 28 46 C36 39 36 27 41 25 C46 24 56 48 66 48 C82 48 75 26 82 24 C88 23 88 34 83 43 C79 51 72 57 68 66 C64 75 62 77 58 76 C51 74 42 54 34 53 C22 52 28 68 21 71 C19 72 18 71 18 69 Z" stroke="#f5f0e8" stroke-linejoin="round" stroke-width="4"/>
</svg>
