<?xml version="1.0" encoding="UTF-8" standalone="no"?>
<!-- Created with Inkscape (http://www.inkscape.org/) -->

<svg
   version="1.1"
   id="svg2"
   xml:space="preserve"
   width="902.17059"
   height="1126.0808"
   viewBox="0 0 902.17058 1126.0809"
   sodipodi:docname="Райские птицы.svg"
   inkscape:version="1.1 (c68e22c387, 2021-05-23)"
   xmlns:inkscape="http://www.inkscape.org/namespaces/inkscape"
   xmlns:sodipodi="http://sodipodi.sourceforge.net/DTD/sodipodi-0.dtd"
   xmlns="http://www.w3.org/2000/svg"
   xmlns:svg="http://www.w3.org/2000/svg"><defs
     id="defs6" /><sodipodi:namedview
     id="namedview4"
     pagecolor="#ffffff"
     bordercolor="#999999"
     borderopacity="1"
     inkscape:pageshadow="0"
     inkscape:pageopacity="0"
     inkscape:pagecheckerboard="0"
     showgrid="false"
     inkscape:zoom="0.98458653"
     inkscape:cx="811.50816"
     inkscape:cy="530.67961"
     inkscape:window-width="2560"
     inkscape:window-height="1377"
     inkscape:window-x="-8"
     inkscape:window-y="-8"
     inkscape:window-maximized="1"
     inkscape:current-layer="g8"
     fit-margin-top="0"
     fit-margin-left="0"
     fit-margin-right="0"
     fit-margin-bottom="0"
     inkscape:snap-global="true"
     inkscape:snap-page="true" /><g
     id="g8"
     inkscape:groupmode="layer"
     inkscape:label="Untitled"
     transform="matrix(1.3333333,0,0,-1.3333333,-52.642572,1189.1998)"><rect
       style="opacity:1;fill:#ffffff;fill-rule:evenodd;stroke:none;stroke-width:1.4175;stroke-linecap:round;stroke-linejoin:round;stroke-dashoffset:1.6824"
       id="rect11328"
       width="676.62799"
       height="844.56061"
       x="39.48193"
       y="-891.89984"
       transform="scale(1,-1)" /><path
       id="path778"
       style="fill:#cccccc;stroke:none;stroke-width:0.75;stroke-linecap:butt;stroke-linejoin:miter;stroke-miterlimit:1.2;stroke-dasharray:none;stroke-opacity:1"
       d="m 51.29461,345.38312 -1.10196,-0.44208 z m 122.57525,299.12628 1.36976,0.43452 z m 394.85109,-131.30029 -0.17566,-1.30817 1.27612,0.25058 z M 82.7116,700.01776 l 1.49289,-0.74457 0.8375,1.43091 z m 557.53059,35.25754 1.08758,0.54065 z m -119.83219,25.366 1.09275,-0.91988 z m 100.80429,26.29224 1.45185,-0.29768 z m -258.8114,-12.26134 1.60446,-0.47754 z m -157.07473,14.95826 -0.46941,-3.57841 1.69937,0.10778 -0.0115,1.5692 z m 25.55345,50.82517 0.4335,0.90463 z m -84.34024,50.20812 0.69001,-0.93324 z m 383.61802,-128.59669 -1.14935,0.23329 z m -191.78116,-34.11914 0.32959,1.12587 z m -104.50958,117.86918 0.93242,0.57369 z M 81.7266,275.7597 l -0.3232,1.66718 z m 119.77187,509.09133 1.34668,1.77714 z m -19.06504,21.87576 0.0962,2.03159 0.98884,-1.81355 z m 479.45043,-60.14963 -0.0962,1.17794 z m 27.4157,-5.84509 -0.63232,1.83463 z m -1.38,3.34482 0.10516,-1.09082 z m -8.11725,3.77852 0.55407,1.41054 z m -538.89902,142.50648 0.33347,-3.9074 0.42066,3.0868 z m 36.62054,-194.56183 1.19405,0.43715 -0.86699,0.71256 z m 10.24627,-17.0424 -0.76183,0.85838 z m -11.03502,2.10297 0.0205,1.0512 z m -113.6862,19.08734 1.5506,0.38389 z m -3.55559,1.17343 1.9242,-1.55734 -0.35619,1.41841 z m 649.91143,-4.68503 1.40955,-0.1138 -0.42706,0.95306 z m 3.57575,6.50725 -0.9773,-1.96034 2.80622,-0.15509 -0.53864,1.24839 z m -295.3429,-138.77544 -0.94607,-2.104 2.17752,-2.05759 0.0788,1.56787 z m -1.75634,1.54804 -0.54895,-2.24204 0.74389,0.78037 z m -2.38813,-4.02985 1.08506,1.67593 z m -3.67578,1.91034 1.84686,1.45132 z m 2.60101,-2.47003 0.10773,1.88931 z m -65.47912,66.9984 1.18252,-1.1355 0.56687,1.18261 z m 1.42621,4.89885 v 6.04997 l -2.06748,-0.98906 0.33603,-2.08984 z m -3.0499,-12.6843 -0.28729,0.98508 z m 262.3602,-138.01318 0.64642,1.84817 z m -1.07477,6.33035 -0.91186,-2.28113 2.2124,-0.46905 z m -0.33341,1.84369 -1.29023,-1.61145 1.19274,-0.10382 z m -7.77737,-0.10101 -0.3117,1.3731 z m -26.63336,15.31668 1.25946,0.26742 z m -118.0802,44.057 -2.25345,-4.69381 0.52201,1.54129 1.95587,-1.02298 2.24704,0.98547 0.66821,2.41425 3.47696,-0.14182 0.41684,1.36694 z m -2.04565,-5.8714 h -1.08506 z m 5.29306,-2.59515 -1.08502,-2.60004 2.16107,1.7081 z m -59.99271,34.13086 1.25302,0.56558 z m 16.03342,12.63315 3.12814,5.99685 -2.69977,-1.32989 -0.21289,3.11206 -2.3009,-0.6243 0.354,-2.04529 -2.91653,-0.10168 0.43606,-4.90195 -1.78527,-1.77524 9.1253,-1.1275 0.76312,1.90808 z m -8.02616,7.42398 -1.23895,-2.38587 0.95038,0.85709 0.93112,-1.35373 0.80033,2.29511 z m -0.82531,1.77011 0.94842,1.60876 -1.7045,1.6323 0.64511,-1.20505 z m 5.93496,28.58905 1.35053,0.71924 z m -0.3309,-0.11923 -0.54123,-1.5398 z m -5.82147,-4.17899 2.53818,1.31915 z m 5.49799,9.8133 4.50207,6.55368 z m -6.66352,-3.25113 -1.56497,-0.91919 z m 1.91968,-0.61472 4.74414,3.6539 -0.86188,-0.77872 z m -90.2887,-0.21091 -1.62371,6.18049 -3.12043,-2.76462 0.60535,-3.01639 -1.79428,0.0864 -0.86569,-1.70417 9.63833,-0.44415 -1.4403,1.60351 z m 13.02427,8.22834 -0.86957,-3.37561 -1.04273,2.4172 -2.04565,-2.63571 -1.61344,1.67053 -3.55139,-2.00943 -0.58484,1.65628 -1.4544,-1.01776 0.3309,1.73322 -3.46286,1.32596 2.0354,-7.15873 7.32205,-4.57785 6.70386,5.73139 1.37747,-0.36005 0.99909,3.00644 z m -97.36451,-54.31629 0.6464,-1.60629 0.90805,2.89004 z m -11.98155,-12.24994 1.28896,0.75119 z m 8.31474,5.34644 1.01578,-0.0159 z m -4.65051,-4.43442 -1.73143,-1.90677 1.94946,-0.2128 -0.80799,-1.08557 1.87379,0.73972 -1.17352,1.01617 z M 77.76226,479.952 l -1.92254,-3.39493 2.48301,2.36664 z M 39.48193,397.31454 v -5.96023 l 3.26296,-5.39755 0.15134,1.25827 z m 1.85473,8.39081 -0.9773,-4.41018 z m 0.53867,4.40961 -0.53867,-4.16196 0.53867,1.18692 z m 552.84031,-334.13931 1.73144,-1.16577 -0.65539,1.03393 z m -14.59796,-20.66584 -2.08417,-4.27252 -1.2851,1.04206 0.92218,-1.95942 1.04657,1.86585 1.58136,-1.85523 0.32575,3.48035 z m 11.34924,13.95746 -0.2052,-2.95373 2.05334,3.16107 z m -10.47327,-9.91821 -1.07605,-1.68665 1.08887,-2.26806 1.20819,0.41028 -0.55792,2.33062 z m -38.45074,56.90808 -1.40311,-0.98022 1.09531,-0.85956 z m 0.16162,-4.8642 -0.90933,-2.09155 3.03192,0.14209 -0.81183,0.85083 z m -2.96399,0.47467 0.76312,3.55079 z m -9.97948,19.10132 -2.59458,1.77832 -1.69296,-6.96447 1.035,-4.2707 3.30387,1.96277 -0.11032,2.8346 z m 66.41667,-13.13678 -5.12121,-2.34295 5.18146,-0.37744 0.2091,-1.40265 2.2688,1.56781 -0.86059,1.13171 z m -3.13971,0.69947 3.19355,0.99139 -0.43988,2.54749 -1.18378,-0.56348 1.18378,3.38751 -2.08033,0.5387 -3.36792,4.5957 -3.08325,-3.43866 1.94178,-0.32092 2.11236,-5.26056 z m 1.10175,-6.74335 0.89777,2.216 -2.16108,-0.72027 z m -216.15012,134.94678 1.06196,1.35431 z m -12.66256,29.02465 -1.73145,-1.52606 z m 67.13745,-66.29644 -1.93537,-1.65027 -0.53994,1.39746 -3.11533,0.24646 0.66309,2.80646 -4.53507,-0.0158 -11.61987,-3.38641 -1.02863,-3.00104 2.88446,-2.93872 8.07364,1.61743 3.64627,-2.00617 2.2547,1.10889 0.41684,2.24866 6.60254,-0.16156 1.29154,1.98946 z m -9.15225,22.90338 0.22573,1.25439 z m -19.99491,-7.86652 1.8161,-2.44757 -0.43734,1.23285 z m 163.67084,-74.84881 2.44971,-0.17597 z m -18.49426,9.07855 -0.22321,-2.13092 3.23206,0.67413 -0.73877,1.05634 z m -0.29242,-3.11652 -2.62155,-1.58941 3.77578,-0.81507 -0.27313,1.23963 z m 126.11017,255.57898 -2.27008,-2.14395 1.40051,-3.65723 -3.33588,-3.20272 0.85291,-2.04798 -1.92639,-4.43182 1.71856,-3.74594 4.95838,14.09787 z m -4.52863,-11.21649 -0.4964,1.2002 z m -27.65558,32.01404 -4.08966,0.0254 3.69208,-5.00092 0.88238,1.92488 z m 1.48389,-4.49481 0.78491,-2.22904 -0.16925,1.02225 z m -13.47315,26.26025 0.0616,-2.19272 0.85675,1.18671 z m -1.72503,8.31873 -1.19275,-0.24024 z m -1.9353,1.74862 0.85028,-0.93695 z m -8.21598,-13.87747 0.0474,1.6937 z m 2.58042,3.63001 0.44122,3.14578 z M 39.48193,704.1657 v -4.97376 l 2.28566,-0.38803 -0.35783,1.38707 0.68104,-1.27847 5.48268,-0.44289 1.52283,1.88385 4.1411,0.006 3.97131,2.33801 -1.24719,1.06293 z m 547.99372,21.91152 3.46289,-5.53187 0.91571,3.96106 z m 5.50854,0.65969 -0.32324,1.40425 z m -8.20703,1.62066 0.10773,1.19794 z m -40.37326,19.61098 0.6387,1.1971 z m 32.68954,-16.90358 -1.69299,-2.01953 2.47022,-1.98386 0.75287,2.767 z m -19.41394,8.57726 0.92218,-1.76047 1.82764,1.59705 -0.91962,1.98663 z m 29.15229,36.68332 2.01233,0.0308 -0.49634,1.37085 z m -16.90393,5.72674 -2.17011,-2.93764 0.80933,-1.23856 2.46118,0.81117 -0.39887,0.98312 7.93256,-1.132 3.57831,3.19052 z m 44.07599,-43.08822 1.66473,-0.40279 -0.64514,1.17744 z m 81.47503,-5.07528 -1.39801,-1.96359 1.51599,-5.09038 1.50574,3.92107 z m 18.73798,-21.40518 -9.4549,7.84514 -2.33941,5.10162 -5.74836,1.84765 0.87726,-8.18451 7.23358,-5.85242 -0.65795,-3.34406 2.47406,-3.04199 5.78295,-2.49155 3.44751,2.37275 0.22699,-1.05519 0.0513,2.42527 z m -19.8598,49.9587 2.81475,-4.01769 -1.4154,3.13347 z m -20.37879,-4.61991 -1.07733,0.442 z m -9.60498,7.14263 -1.87683,-0.45438 1.7691,-2.35605 0.10773,1.73409 z m -10.69647,3.13483 0.84192,-2.33927 0.7279,1.25287 z m -0.92816,2.24754 0.0441,-2.19163 1.53432,0.59129 z m 1.36297,1.74954 -0.26934,-1.07719 z m -37.52221,19.5657 -1.24274,-1.13026 3.98999,-2.44152 -0.91321,1.68329 z m 9.28564,-16.09956 -3.92584,-1.39153 3.59369,-3.415 4.16955,0.33253 0.21674,1.98614 z m 10.62976,-8.33388 -1.77374,-1.20846 3.50519,0.34546 z m 32.52411,-17.09157 -5.84845,2.59807 -8.23395,9.06949 -13.17816,5.95694 -6.36139,4.94463 1.2569,-2.23526 -2.09058,-1.12479 5.21357,-1.008 11.3236,-8.33978 7.55677,-3.29448 6.29217,-9.38398 0.0308,-6.06859 3.27692,-4.75243 2.79724,3.89809 0.97728,5.25366 z m -11.98285,-5.10379 -0.0102,2.62354 -2.78058,-0.77672 -0.69257,-2.20566 -6.68847,2.44228 2.18548,-11.43778 -6.71673,-1.46627 -5.29175,-7.81131 -1.69299,0.68284 -2.7677,-1.79612 -2.51893,1.7227 -4.93011,-1.56293 -2.03668,3.98088 2.68432,3.68828 -1.41589,0.86005 -1.56598,-1.23089 -1.60321,-6.79835 -3.04217,-0.85304 -0.76185,1.42511 -7.02453,-1.90578 -3.88226,2.12224 -6.64484,-1.18283 -1.9931,1.5075 -1.59162,-3.78468 11.41205,-5.11316 -0.003,-2.45968 4.21832,1.6936 4.96216,-4.01592 13.07556,0.54194 5.21612,2.43696 0.40015,1.68573 5.69452,0.78665 5.51239,4.74547 -1.07861,2.06578 5.833,-0.92909 4.17084,2.17247 0.76569,1.74045 -2.67798,3.12068 -0.05,2.6022 5.00318,0.76984 1.88794,3.98094 0.10023,5.35072 z m -16.65002,-65.19868 -2.05207,-1.57806 1.94434,-1.03238 -1.24152,-2.29627 1.5647,-1.65332 -0.47839,0.98894 z m 26.23913,-9.31723 -6.39135,0.19693 0.5169,-1.47717 0.47663,1.89018 3.9848,-2.86144 -0.95026,-0.60641 1.44489,-1.24284 0.13141,1.26344 3.51733,-1.20189 0.44214,1.83993 z m 20.42249,-36.94463 0.84003,-0.9248 -2.14057,-0.28259 4.10675,-0.55869 0.21546,1.16437 z m -282.00372,162.61646 -5.15326,5.71828 -7.86332,1.06972 1.39158,-2.47166 4.83392,-0.73369 1.88534,-5.41833 4.34397,-0.59651 3.38849,2.00503 z m -17.32721,-6.96729 2.97552,0.50165 z m -2.66129,6.88134 -0.79132,2.14218 -1.22482,-1.44435 1.98153,-1.6984 1.14145,1.84206 z m -5.69064,-19.24942 0.22574,-1.94855 z m -3.26279,2.20251 0.3963,2.36015 z m -2.91141,3.30852 0.95679,3.23112 z m -16.78467,-53.18601 -4.22085,-10.86221 4.27087,6.35545 1.11966,4.51706 z m -7.72735,-4.62274 1.13635,-5.16142 1.73529,2.24075 z m -13.92071,13.24016 -0.0539,1.15823 z m -0.8837,3.83072 -1.16968,1.47944 z m -4.89804,8.87907 1.18505,-1.17769 z m -1.38901,-1.70355 1.3313,-0.82422 z m -39.71147,5.85031 0.54379,0.89707 z m -3.16277,3.25125 1.18507,-2.03805 1.44672,0.12466 -0.118,1.41097 z m -2.11107,-0.45744 -0.53866,-1.89674 2.69334,0.80447 -0.5515,0.93036 z m -6.98089,-1.54462 -0.79903,-2.25683 4.2465,1.95996 -1.66218,-2.11421 2.19188,0.80459 1.48646,3.32201 z m 44.63902,2.94132 -2.36246,0.48439 -1.24151,4.32664 -3.1294,2.14107 -6.68976,0.31978 -6.6795,3.05375 -5.73557,-2.80332 -1.95715,2.41809 -13.82842,-0.82953 -1.13121,-3.3134 -4.11953,-1.67749 1.31974,-6.00241 3.77839,7.6799 0.20391,-2.0089 4.8134,-4.23442 3.04862,0.47669 3.14993,3.6267 1.64679,-0.77845 -0.33346,-1.63669 8.27114,-1.70368 1.22355,0.37648 -0.84519,2.16483 6.00229,-0.48305 1.75327,-2.20987 12.86264,-6.24986 0.87213,4.65649 z m -56.05498,0.99572 -3.23457,0.76058 0.61433,1.9295 -3.99513,2.00635 -6.59741,0.0501 -3.45767,-1.75754 -1.75062,1.10081 -1.56304,-2.14811 3.32972,-6.04384 7.77835,-3.67676 8.02443,3.22501 0.55406,2.97869 z m -66.39485,-27.91441 -1.52879,-0.83447 1.61087,7.11664 2.64204,-1.20723 -0.30395,3.59941 -2.50739,3.23552 -2.93703,-3.55977 -1.61215,-6.71095 0.9773,-2.80846 -3.90151,-4.67867 1.12222,-2.45877 2.9832,-0.22168 0.76569,3.44837 5.30974,2.48111 -0.99654,1.21327 z m -5.29178,8.25617 -5.17636,-2.06151 0.31422,-4.99715 -1.93792,-4.87334 2.70103,0.86564 0.27704,-1.28818 0.6759,1.73642 1.36975,-2.1113 0.0923,4.11784 2.77032,3.84969 z m -11.56473,-7.19643 -1.94561,-0.50089 -0.74132,-2.49577 2.54457,-3.29388 1.23894,0.25895 0.32321,3.74459 z m 15.34053,16.18071 1.48264,-2.5692 2.38809,0.34723 0.12825,3.07697 z m 1.73914,7.52078 1.83148,-0.0488 z m 45.26747,25.34661 -0.45402,-4.20829 1.71604,-3.59928 0.87728,1.18485 z m -8.37245,2.99378 -1.05298,-1.1985 1.52623,-1.56044 14.13623,2.05576 z m -13.93231,2.3404 -2.09824,-0.65694 -0.87984,-3.19891 1.21201,-2.10201 2.16238,-0.0385 4.49276,1.75682 7.72349,0.19761 -0.0564,1.63352 z m -11.51598,-3.9059 0.10773,-1.86332 0.99653,0.65834 z m -6.85777,10.1654 -1.89562,-2.60939 -0.66948,3.93197 -4.34399,-0.49003 -1.60446,-4.21299 1.32103,-2.30041 4.04259,4.55578 -0.65667,-4.35691 2.09055,-0.87503 0.71309,3.32425 1.88791,-1.49722 1.89431,1.31633 -0.40142,2.65817 z m -4.40427,-10.6017 0.94652,2.14937 z m -14.63129,26.30282 1.15429,-0.22316 z m 1.28383,0.5297 2.36629,-2.31759 -0.10773,1.3018 z m -9.08043,0.81955 -1.18379,-0.55407 z m 3.32821,-3.63221 2.61254,-0.45789 0.0462,1.17869 z m -3.44492,-2.64342 3.97974,0.59384 -0.64511,1.68404 z m 82.46773,79.50161 -2.05849,0.81053 -0.53104,-4.44898 1.45791,-0.65061 -1.99816,-3.45221 1.92299,0.20794 1.13899,4.95782 z m -4.09606,-7.11829 1.27626,-3.65952 -0.62318,2.67311 z m 3.79735,-4.51338 -1.76613,1.50351 z m -22.28438,-0.34172 1.02861,-4.31467 1.73145,-1.07734 0.55661,1.17692 z m -1.29152,-15.5208 0.51174,-1.96318 0.80417,2.58979 z m 0.50789,-6.74642 0.62717,0.97812 z m -3.2628,-14.7431 1.73016,2.53772 z m -74.30559,-112.9585 0.17057,-11.26092 1.0222,8.54701 z m 180.41962,-21.20119 -2.93573,-0.59713 3.67834,-1.80208 0.26163,1.04458 z m -15.63422,-16.35983 -2.57025,-3.4757 6.59232,3.59618 -1.13892,-0.0972 z m 12.256,15.91651 -2.13547,0.009 -5.15454,-5.66874 -0.9491,-2.57341 1.07993,-0.9072 -2.12903,-0.005 0.0231,-4.67383 2.63565,1.02826 0.52457,-1.30284 4.98523,6.33052 1.03247,6.25087 z m -33.35646,-11.19199 2.69849,-3.48219 1.29791,2.81024 z m -15.25461,12.27765 -1.43132,-1.07015 1.73143,-1.41935 0.48866,1.31077 z m -13.52316,-16.7625 4.16186,-2.2922 1.02347,2.07583 z m -6.12801,9.72478 -0.23727,-2.37811 1.77376,2.03399 z m -11.75326,-0.85645 -4.70566,-2.15838 -5.66501,0.56685 -3.06912,-5.52808 4.40939,1.95541 6.4961,-1.30269 1.46852,2.33327 4.37219,1.4886 z m -17.70297,-11.30958 1.1017,-0.74137 1.21456,2.7784 -1.28126,-0.85257 z m -23.83228,-17.18129 -4.76979,-4.20778 -1.75581,-6.76459 2.95114,-0.64996 -3.92844,-2.21105 -0.68359,-2.43235 5.1584,-0.15645 5.0917,3.23774 4.6659,0.13942 9.64988,10.49811 5.48417,3.61785 17.23614,5.39839 1.74683,2.18467 6.90138,2.07489 4.60306,4.15154 -5.45595,1.6917 -6.591,-2.83144 -2.16239,1.0775 -19.65758,-3.27718 -3.31794,-5.06909 -7.69016,-3.77807 z m -10.55408,-15.84983 1.44416,0.10169 0.82595,2.92725 z m 1.01963,-1.50732 -5.31617,-4.46205 -3.72964,-1.07568 0.13339,-1.84253 6.11775,1.28631 3.1525,2.14876 -0.30013,1.40544 z m -26.73468,-2.10266 3.02168,-0.54668 1.8289,1.43247 -0.90932,1.26382 z m 43.89386,38.84137 -1.30564,-2.11214 2.44582,0.54949 -3.37438,-2.90348 12.44712,0.96711 0.16929,2.15408 z m -5.76633,-4.01883 -1.35694,1.13943 -1.8289,-2.25314 3.81943,-1.34605 2.4984,5.07925 z m -7.37207,2.57803 -0.82724,-2.39781 -1.12222,0.32926 0.78363,1.67589 -2.41761,-0.30974 -0.70283,-0.78804 1.82892,-0.54312 -4.0721,-2.79283 5.60602,-0.62901 -0.17186,1.49657 5.60856,3.89143 z m -78.76117,200.96078 1.29537,-0.054 z m -4.69027,2.86029 3.99,-0.64855 -1.40824,0.21618 z m 465.49119,-828.65231 -1.42365,-2.4328 -2.60486,4.34876 1.02991,2.29517 1.11072,-2.18287 1.95459,0.0666 -0.73621,2.85175 -4.8352,1.40698 0.40271,-3.02575 -1.93665,-1.48389 0.64771,2.95557 -3.05115,2.80224 1.20557,-3.15423 -0.42579,-2.52985 -1.24151,0.3316 0.05,-4.90399 -1.47748,-0.34167 -0.90161,2.49536 -0.72596,-1.01306 -1.38128,1.52282 1.99951,-3.63934 -2.16113,-0.88501 1.46081,-0.34564 -2.10718,-1.59204 1.51593,-1.05298 -1.8302,-1.17059 0.39893,-1.73481 -3.40906,-0.37561 -2.45862,3.4701 -0.64898,-1.40216 -4.34009,1.07342 -3.37183,-1.47681 -1.27612,4.07447 3.43848,-1.10834 1.07348,2.08533 -3.21661,-0.11109 -1.70581,2.79145 0.13599,-2.0177 -1.48139,-0.074 -8.9252,14.82025 -1.20944,8.71875 3.87842,-3.91119 0.58612,-2.85047 1.35693,3.65583 -3.34747,4.13727 -1.83914,-1.03144 -0.35401,4.86621 -7.19763,11.6568 -2.27011,8.75037 1.82123,7.41785 0.70794,-1.79108 5.556,-1.97473 2.37015,2.1101 1.14917,-2.57116 2.86517,-0.0475 4.50562,-3.77917 8.57251,-2.94776 3.65399,-0.25555 2.49841,2.39722 3.03705,-2.09052 -1.56213,2.62964 7.06427,2.05426 2.50354,-1.39972 3.24225,3.75098 3.7066,-0.94269 1.55188,2.8584 3.54749,-2.16998 1.92382,-3.36756 -1.10937,-16.77051 1.6275,-8.56738 -0.66943,-1.56787 -1.00556,0.71918 0.97858,2.65503 -2.48425,1.27893 1.24914,1.0982 -0.95672,1.2732 -0.78241,-2.43012 1.35052,-0.66699 -1.95587,-0.1452 -2.03412,-5.09851 1.05683,0.1596 -0.39246,-3.88147 -1.84943,-0.66308 1.01581,-3.74628 -1.71094,-3.13904 2.52405,-0.919 -0.0975,-6.93655 z m -389.68502,624.50466 -2.15852,-2.36035 4.25165,-0.20224 0.93497,2.16084 z m -4.63255,2.76752 -1.92509,-2.43058 3.15249,0.4665 -0.93882,-1.47477 -9.33695,-5.5471 -4.24522,3.31357 -6.2024,-0.66127 -1.95074,-2.14121 -8.28397,4.21166 -8.73158,1.75486 -6.80006,-3.49986 -1.94434,0.54456 -0.9696,-5.22454 1.60318,-2.08953 4.06439,1.64314 10.52585,-0.77091 2.54843,-1.9705 5.44826,0.35832 0.87341,1.97688 6.05875,-1.49655 5.26484,2.48151 10.9196,1.93568 -0.0603,2.75716 1.47749,-0.36176 2.03414,2.73793 z m -50.87476,-8.39183 -0.30268,-2.88419 1.30819,-0.38286 1.4698,2.8273 -1.0799,0.048 z m -3.4539,2.44328 -0.53866,-4.73963 h 1.39925 l -0.20649,2.29635 1.78146,0.0986 -0.16674,1.1517 z m 16.75262,-19.11443 -3.26408,-0.0234 -0.66051,2.40097 -4.26319,3.22393 -2.50994,-1.48953 -9.94101,-0.0286 -3.67707,-2.68245 2.54457,-2.6239 8.47251,-0.82504 8.21342,-7.23046 4.63897,-1.43113 4.3286,1.81688 1.81609,2.32946 -0.74645,1.44821 z m -22.4856,22.01165 1.35437,1.12741 -0.80416,0.94065 z m 0.0115,-6.12272 -1.2569,5.47599 -3.44492,-0.38886 -1.36463,-3.51892 -0.31294,4.11903 -2.90112,0.62598 -2.38169,-1.94034 -2.56253,3.77126 -3.65397,0.77342 -3.23971,-2.46826 8.97526,-6.38313 -7.51059,-1.25071 -2.8665,4.48783 -0.48864,-1.21631 -0.53868,1.74139 -1.95717,-1.20582 -3.76426,1.96811 -5.62525,-2.39475 -1.72877,-7.25795 4.43302,-2.30108 5.97509,0.85472 12.11714,2.96576 4.05029,4.54277 -0.008,-4.31563 7.78249,0.0493 -3.2474,1.63266 7.08606,0.0921 0.8197,2.09532 z m -43.58991,6.52317 -4.07316,-3.32502 0.9399,-4.65779 -3.76637,0.19844 -0.14704,-1.46809 8.88584,-2.19077 0.31566,1.87897 0.37028,-1.33468 1.87161,0.39079 -1.0233,1.48166 3.82551,6.5495 -1.73143,1.85881 z m -17.22972,2.88405 -5.28794,-2.19725 -6.45634,1.13499 2.46762,-4.21451 5.08273,-1.29005 3.61037,-3.10117 -0.33988,-3.00929 2.96397,3.61902 5.96255,3.26161 -1.28895,2.07667 z m 4.33629,-10.78121 1.90073,-1.20299 -0.61049,2.25005 z m -3.03451,30.16783 -0.96704,-1.47271 1.24407,-1.26108 4.37092,1.63574 z m 37.2631,174.66631 3.89124,-3.08934 -0.58612,2.59808 z m -0.7195,-2.58468 1.11581,-1.27671 1.38515,1.08642 -0.85803,0.93992 z m 3.00115,-7.61156 1.71733,-1.33383 z m -8.93421,-0.34246 4.71592,-1.31452 z m 4.93651,-2.48118 1.84687,-2.48013 -0.36552,3.02555 z m 3.12428,7.34199 1.83918,-1.08876 z m -4.92498,-9.14833 1.36464,0.70915 z m 17.95694,-15.4085 1.5429,-2.04916 -0.86187,0.97867 z m -35.17127,-92.16474 0.96576,-1.68343 0.20905,3.8973 z m -0.8965,4.95924 -2.33936,-1.66232 -1.6237,-4.81586 1.18378,-6.91313 3.38849,2.56488 -0.04361,2.94483 z m -7.79147,-25.21992 1.14147,0.80697 z m 198.26498,-161.03827 1.36977,-2.7652 -0.38605,1.34634 z m -2.63179,-5.23755 -0.43991,1.63159 z m 108.10199,52.67651 1.19602,0.19019 z m -2.17648,-2.84167 -0.35785,0.97192 z m -23.84381,9.23694 1.29022,1.43707 z m -0.54895,-1.86838 1.95718,0.93887 -1.19278,0.15973 z m -59.52811,-50.89914 0.77982,-0.70316 z m 0.13339,-2.60635 -0.91446,2.69259 z m -46.97453,17.29217 -1.73143,0.44391 z m 97.30293,134.01624 -0.33474,-2.39957 0.53097,1.10449 z m -6.64486,-0.56441 -0.70414,0.78087 z m -39.46653,15.95053 1.07477,0.38469 z m -32.02517,24.09993 1.89561,0.16568 0.10773,1.60663 z m -2.8947,-3.08398 2.13031,-0.31344 -0.0988,1.28969 z m -2.56638,-1.08936 2.12775,-0.22096 z m -5.28578,-9.34184 1.5174,-0.40807 -0.10619,1.4178 z m -49.89448,-31.39722 1.2633,-2.49646 0.0924,1.0291 z m -5.44314,7.96571 -1.48262,1.92051 z m 0.90419,-1.67608 1.94692,-1.94573 -0.59255,1.29891 z m -22.03028,29.91131 0.44119,1.0884 z m 2.21111,1.50858 0.0949,1.04588 z m 30.52203,22.82053 -0.33732,1.25253 z m -59.08452,-78.42591 -1.02444,-1.18532 1.79815,-1.23991 1.37858,1.19145 z m 2.69609,-4.46675 4.32731,-0.36593 -1.67758,0.32583 z m 169.55647,7.58963 0.73105,1.94237 z m -5.28281,-8.82324 1.07349,0.43449 z m -3.57061,-1.84564 2.92419,1.09683 z m -2.3368,-0.88229 2.01102,-0.0931 z m 2.05207,-2.74444 2.10852,1.15047 z m -33.67453,-7.93187 3.07553,-0.11143 z m -11.83919,-0.87208 2.33166,0.0531 z m -7.55292,0.76065 2.17264,0.76188 z m -7.12198,1.74911 1.01194,1.114 z m -67.28109,-7.74125 4.14904,2.50154 z m -85.04308,6.37309 0.0898,-2.83701 2.70744,3.39028 z m -66.26788,-4.8635 1.78402,0.65613 z m 327.34942,-407.0736 -2.97168,-1.63941 1.34796,2.94 -4.74029,5.36213 -5.96256,-2.18165 -7.79531,4.98481 -8.54944,-1.52582 -7.10404,5.66394 -9.54214,4.62903 -6.1062,-2.41236 -25.05197,-0.89477 -30.1283,-11.46082 -20.66597,-0.20453 -18.02081,-10.91015 -9.97303,-3.19885 -3.91946,-9.98078 -6.71156,-7.03869 -2.25856,0.90716 -3.60396,-2.25268 -2.07259,2.82733 -7.29385,-1.87146 -3.31667,0.83325 -1.45054,-2.02893 -2.57024,0.0557 -1.40311,3.76813 -3.34101,-1.45026 -7.24897,1.55524 -14.80571,-3.01141 -6.1793,0.90753 -6.77954,-4.10742 -1.61601,-3.26685 1.41464,-1.34216 -2.37655,0.26105 -0.70027,-2.38849 -0.98628,0.93963 -1.12607,-1.64935 -6.14853,1.52185 0.75413,-0.91479 -2.52789,-1.10224 -0.0372,-1.4895 -4.44916,-1.99652 -0.69642,-3.09021 -3.74504,-0.85565 0.60792,-1.37122 -5.73554,-0.28192 2.61639,-1.09204 -1.08118,-0.62085 -3.9169,1.42627 -1.01962,-1.76343 -6.74491,2.5105 -8.72773,-0.82227 -3.82712,1.9383 1.7122,0.19714 -1.83019,1.57001 -0.17956,-1.15076 -6.26652,1.57117 -7.41312,8.59112 -3.86559,1.68848 -2.27011,-1.23779 -2.3291,5.34979 0.27575,10.65137 3.24869,-2.33698 2.71899,0.25263 5.40465,6.81121 -1.72118,11.43915 1.57625,2.78253 -0.96575,-2.69262 1.17353,-2.31409 -0.20778,20.29572 -10.08851,21.51409 -1.86225,8.96717 0.56945,10.00458 -2.14827,6.71038 -3.76171,4.86432 -1.14531,5.67951 -5.7535,7.44159 -2.41888,14.0874 -13.48362,20.53073 1.87529,-1.45657 0.47679,4.18097 1.22999,-6.78113 -0.34035,6.49768 1.95552,-8.20819 0.89532,3.39227 0.34579,-4.89185 0.93994,2.20282 0.70035,-3.75067 3.16302,2.30451 0.2283,3.15838 -4.8467,4.45029 -2.46578,6.3273 1.48883,3.82562 3.80919,-6.57406 -0.45619,-5.46952 1.89222,1.32258 0.10138,3.11224 2.6324,-7.84253 1.29612,-1.00293 2.05819,2.30981 -0.75392,5.92795 1.29281,-0.18545 -0.15775,2.58664 -8.92653,12.85992 -1.38387,6.55048 -3.35514,5.45202 1.07606,8.69428 4.87111,7.78964 0.60793,9.03754 -2.4471,6.28744 6.04721,12.33838 2.14954,0.59131 -1.49288,-6.33078 1.48006,-2.41803 -0.77209,-3.18253 3.69629,0.30957 2.18546,8.1991 0.86187,-0.63641 1.51982,3.37384 13.1089,5.80334 11.31206,11.05829 4.02207,0.54205 5.34822,4.71293 1.01834,-2.98331 4.70566,1.94907 3.14737,-2.21235 6.02925,1.16672 6.53329,5.08704 10.31937,1.26236 4.56715,5.27524 7.79146,-1.66257 2.2778,1.7308 9.9936,1.60147 11.97386,5.79901 6.16391,7.53229 1.48006,5.94821 2.45479,0.9166 0.6618,3.23886 8.44686,5.66663 -0.0462,2.29052 -2.74722,0.0782 0.0359,11.85822 4.74158,5.62213 1.92381,-0.83664 -0.19879,3.15231 3.76042,-0.003 -0.97986,2.88413 2.48044,3.09811 1.64038,0.54816 -0.95294,-3.25012 2.71643,-1.7428 0.17572,-3.74454 6.73721,-11.2449 0.38092,10.06903 5.01732,-3.8002 -1.87123,3.55343 1.07862,-0.41979 1.42234,3.24563 -2.53431,-1.02386 -4.45301,3.89804 1.56472,1.76925 -2.91652,0.90702 3.4539,-0.57254 -2.16237,1.93924 3.23972,-0.35834 -1.26204,1.06955 1.26204,0.51056 -2.71003,1.12246 0.47968,1.44925 3.73091,-0.23236 -1.16968,-1.11401 2.05465,-2.80545 0.45402,1.49457 1.59164,-0.64157 -1.29153,2.63372 4.91344,-2.92517 10.73747,-0.1123 -7.91844,1.20169 0.51687,4.45535 1.35566,-1.94644 1.19532,1.00806 0.21291,3.54654 1.93793,1.50924 h -1.93793 l -1.94434,-3.14193 -1.73144,7.74542 3.99,0.33276 0.16545,1.45578 0.66948,-0.94739 -0.29754,3.65238 8.21855,-4.37107 -1.77632,1.61817 1.13121,1.72912 -4.08235,0.26597 2.68181,2.1972 -2.92421,-1.43939 -0.43992,1.78354 2.82546,0.66824 -0.33218,2.11951 1.13633,0.0305 1.46595,-3.16244 v 2.46274 l 1.93792,-2.10797 2.26755,0.0425 -1.03502,1.41208 0.99397,0.69186 -3.82583,1.0369 1.92383,0.98617 -2.72414,2.43036 3.33591,3.86368 -0.0769,-1.76895 0.75413,1.1105 0.76953,-1.62347 0.85417,2.41308 1.50571,-0.89032 0.45659,5.23267 1.81224,-0.76746 -1.50442,-5.92035 1.50058,3.8447 2.91906,-3.89508 3.5719,7.20126 -0.16289,1.63083 -2.54713,1.19391 1.9469,-0.0595 -1.24535,1.67322 1.08889,0.52985 0.3809,-2.08408 1.73145,0.99924 -0.8606,-2.0979 1.93794,-2.35181 0.63486,2.77621 3.12685,2.11618 -1.1697,-2.41366 2.36759,-2.47873 1.63397,4.00561 2.36501,0.55509 -1.73143,2.55893 1.83018,0.78567 2.46634,-0.55853 1.72888,-3.0834 0.55919,1.41519 3.99129,-0.99759 8.33398,-10.26364 4.47608,-2.36225 -1.78658,-2.2099 -1.47621,-10.4956 1.59035,5.13885 2.5869,-3.58999 -1.47365,5.63461 1.85457,2.47742 0.57714,-2.15869 1.57753,-0.0876 -0.97345,3.90231 2.26882,0.8237 8.98167,-2.4863 1.28641,-1.2478 -0.4938,-3.94809 1.74041,1.89624 -0.53994,4.42096 3.90536,-1.58453 1.71219,-3.85019 2.23547,-0.39072 -1.22738,5.88913 5.25201,0.43646 0.17188,1.31839 -3.63474,-1.54126 -2.75235,3.35889 3.17304,1.33179 -4.00412,-0.2226 -2.55997,3.51621 1.72247,4.50982 1.62369,-0.66641 0.32321,1.55344 2.04694,0.0886 2.45352,8.9892 1.22354,-1.50354 5.72656,2.98279 -3.30255,2.94232 0.11285,3.62579 2.97425,0.55795 0.56302,3.7811 2.4035,1.22107 2.93192,-1.68249 -2.08802,1.16729 0.28345,3.67328 3.23843,-0.55157 0.0975,-2.42386 1.73144,-0.88318 1.08246,0.21161 -1.49417,1.82654 1.49417,-0.38364 -2.26755,2.2041 3.57062,0.44122 -0.3963,3.65 3.64371,-1.4368 0.61306,3.10132 2.3881,-3.96494 7.07965,1.19171 2.53561,-1.46475 3.04862,2.4252 2.02639,-0.96176 0.12058,-2.6503 0.82083,3.63568 5.01089,0.34635 -1.9392,1.06772 -0.65409,4.55386 1.616,2.10754 -3.15506,2.85257 -6.1293,-0.75518 -2.05463,2.76361 -3.28589,0.65011 1.81098,2.23084 1.58776,-0.87207 0.0372,1.55966 2.97937,-4.45554 0.9606,1.07669 -1.37873,3.24811 2.15982,-2.1076 0.91187,2.35336 0.55023,-2.58878 1.52878,0.78727 3.13968,-4.40876 3.73221,2.83936 4.03103,-5.99219 5.75736,-0.72043 v -1.87893 l 6.04721,2.3099 -1.13504,-2.13952 4.63638,-0.39057 0.75415,-3.17282 1.56342,1.74402 4.87369,-1.54993 2.74722,1.88031 1.45825,-2.88241 5.61832,-2.80997 -0.74881,1.1709 2.64877,-0.28186 -1.81967,0.87674 2.26288,1.67196 3.49292,-0.17654 1.95575,1.29056 -2.06348,-0.62952 0.18085,1.4896 2.87802,0.73672 1.97385,2.57892 -2.89185,-3.92655 3.14194,0.56107 -4.16272,-3.789 1.25775,-1.74454 5.06735,3.98361 -1.86099,-2.40597 1.96744,-0.29923 -0.41428,-3.77072 3.94897,0.80905 1.23764,3.1113 -2.93188,0.83978 6.22836,4.42151 -1.60696,-1.44949 3.04693,-4.46802 1.53394,1.59833 3.51032,-2.91889 -3.34861,-3.16217 0.54111,1.37098 -1.02859,-0.31131 -2.04181,-5.72715 -2.19059,0.91278 2.92826,-3.58715 -2.53324,0.3323 1.11069,-1.34268 -1.49545,-2.98059 -2.36936,-1.06262 0.17109,4.22632 -2.74601,-3.49582 -0.17309,2.27639 -1.48389,-3.07095 -0.71225,1.56152 -1.96872,-1.78533 1.35645,-1.61814 -1.80747,-0.49154 0.50403,-4.1774 3.01273,0.82632 -2.65488,-8.64728 -8.53021,-8.58676 1.59805,-3.67117 11.89944,-7.52164 0.76569,-2.46738 5.06735,-2.4772 1.90457,-3.68725 4.35425,1.1762 11.88663,-6.36215 6.90524,-7.31457 12.98706,-3.26349 4.19007,-7.46839 11.43133,-5.91394 8.25321,1.25452 5.07504,3.12589 1.60446,6.97723 3.97846,5.19177 3.65139,10.53421 0.13468,6.76505 3.56164,10.4169 -2.27011,8.59802 1.21073,6.00629 -2.05979,4.04455 3.55908,9.96878 -1.73144,4.28522 3.56161,5.14182 2.03284,-3.89161 -0.52713,2.44666 1.62372,0.68112 -2.91651,0.98334 2.37784,1.11319 -2.78186,0.0828 -1.63907,1.24033 0.80671,0.78158 -2.43042,-1.38855 1.99435,4.96882 1.45953,-0.0551 0.3386,3.71237 1.29409,0.82862 0.0988,-2.44172 1.78659,1.04532 -1.3454,2.33628 3.20636,15.20326 6.22678,4.2189 1.09915,-1.03773 -1.79941,-3.13675 1.40436,1.33094 1.18893,-2.21803 1.19278,0.45075 2.05335,-6.54593 -0.15647,-7.31003 6.09467,-2.11551 -2.56509,-2.91412 -0.14365,-2.89902 5.62268,-4.5882 -1.18253,-4.32226 2.91398,0.77221 0.85287,-11.19131 -1.06836,-3.66495 3.98102,-10.59524 2.49713,-1.77219 4.09772,4.24222 1.61346,-1.01111 2.88059,2.45053 3.01397,-6.40903 10.5297,-6.30233 -1.73142,-3.64569 1.79044,-1.37961 -1.66345,-2.90854 3.4436,-10.34992 -0.9773,-6.28424 5.07636,-5.87054 0.81567,-3.099 2.84986,1.89838 -1.1543,-3.07337 4.19006,-9.45938 -2.16882,-10.00394 3.13715,-4.59762 2.05206,-0.22727 -1.08118,-5.40084 0.98499,-1.78952 9.01245,-5.76407 1.87506,2.12323 1.73145,-3.89722 4.52996,-0.0326 -0.30011,1.81887 4.44275,-8.76715 1.58777,-0.12271 -0.53863,2.40946 1.15167,-0.38144 1.6571,-3.06989 5.50849,-1.14325 -0.21546,-1.96844 2.16114,-1.93711 0.6643,2.29215 1.82636,0.15564 0.80035,-2.70197 2.69714,-0.45654 2.4433,-4.94488 -3.71942,1.6101 -0.6438,-2.23745 2.88953,-3.45862 -0.25775,-1.90607 3.61163,-0.13455 -0.46814,-1.3114 3.22431,-1.91687 0.96063,-7.11969 3.073,-0.4274 -0.81568,-4.30426 2.39832,-8.37235 1.73144,-1.05917 -0.53863,-2.54868 2.35602,1.97315 3.68731,-4.55792 -1.94177,5.91818 2.0495,2.66833 2.21368,-4.0383 6.5423,-3.95489 -1.03119,4.1546 1.17737,0.55469 0.71564,-1.448 0.21551,1.04587 1.29663,-1.91733 -1.29663,-1.57303 0.85803,-1.11691 0.65406,1.67099 0.83496,-2.8635 -1.41724,-4.01699 2.29834,-9.53409 -1.07733,-0.34964 3.10944,-0.98487 8.4989,-9.04333 2.22394,-0.11945 -0.79267,2.07142 2.1919,-0.76374 5.39953,-9.84271 5.46363,-3.70993 2.63562,-6.16773 -1.09143,-0.31884 5.45465,-1.8999 -0.68488,-3.27921 1.50958,-0.37653 -1.29406,-3.09283 2.16235,-5.16065 0.63483,2.65317 2.27014,-2.05694 -2.07257,-6.69825 2.14569,-13.41857 -2.71002,-2.05799 1.24792,-0.062 -0.82727,-2.01257 6.00232,-8.54938 -0.72333,-2.90173 2.68945,-4.2793 0.94654,-8.38294 -4.41321,-11.1593 -0.87732,-9.88421 -4.28448,-13.65668 0.57409,-9.20764 -4.92157,-14.14112 -3.16528,-3.73474 -0.10223,-7.42376 -3.8631,-2.19562 -1.19007,-2.57514 -2.49585,-0.0137 1.95716,-1.28985 -6.08069,-2.38013 -3.62921,-7.49731 -1.81494,-0.22571 -0.46698,-4.22113 -3.04859,-0.13544 -0.0808,-1.40228 1.81482,-0.159 -0.935,-6.34967 -2.93444,-1.18011 2.14312,-0.49524 -6.78082,-9.6872 1.82892,-1.05615 -2.99347,-5.19098 1.85455,-3.90686 -2.35089,0.98389 1.00678,-2.94251 -3.23841,-0.66858 -4.13366,-9.85492 -1.58777,-0.0774 0.75152,-2.06464 -2.47528,-4.88019 0.95807,-4.61401 -4.19525,-15.25275 2.79596,-3.41918 -1.61597,-0.30787 0.0333,-4.89227 -3.69885,0.29913 -0.62977,-3.48541 -3.14349,-1.89099 -18.48022,-0.74835 -8.64948,-3.2298 -14.34015,-14.06183 -9.8269,-0.59485 0.98114,-3.95202 2.99988,2.01111 0.10516,-5.14942 -1.40564,-1.63135 -3.35004,5.61005 -1.41589,0.98309 -2.68951,-1.75915 -1.76221,5.18561 -3.30512,-0.60443 -3.57061,2.89025 2.89727,3.05146 -1.45825,3.02551 -3.28589,-0.13879 -0.42324,-3.4513 -4.48252,-1.95404 -4.22085,3.56378 4.82495,-0.16516 2.14953,3.65344 -2.90753,5.82941 -8.85342,-5.00922 5.22766,-0.55438 -0.81827,-2.80279 -3.95535,-0.30884 -13.63092,-11.23187 -11.45313,5.65472 -4.85058,4.10553 -5.15329,-0.48761 -6.5166,2.75 -3.21665,-3.57507 -2.80878,0.93963 0.18085,1.74659 -4.0477,3.57989 -8.51867,1.88678 -3.51291,2.80292 -9.91794,14.15747 -1.09528,4.49249 2.68051,2.11865 0.236,4.14844 -4.56586,10.95184 -10.23731,9.69031 8.34812,-6.80816 3.53854,-5.85877 -3.09863,6.46051 -6.8411,5.67651 1.79557,1.95166 1.16968,-3.60565 1.7109,0.0378 0.27832,1.82435 -2.15597,1.66784 2.23935,0.34339 0.0308,2.17852 -2.91522,1.18872 -3.41669,-1.90301 1.09912,-2.00617 -3.73734,0.64905 3.14609,-1.23059 -3.90149,0.17023 -3.38208,-2.07715 -6.6795,0.48914 5.21225,5.38031 1.77249,10.79754 -7.09763,12.19104 -2.66897,-5.16247 -2.8588,-13.74182 -1.23123,-0.96009 -3.87457,1.20624 -4.04001,-2.39142 -5.19818,-0.26697 2.84341,6.8299 6.71927,-0.30652 1.04911,5.74866 -1.5506,2.78094 0.60025,6.04352 2.35858,5.30579 5.18277,4.93121 -1.89868,6.73254 3.62115,3.35791 -4.1965,10.53437 0.0693,-8.67719 -2.30474,0.40058 -2.8357,-3.35712 -3.58215,-9.68738 -3.22562,-1.45666 -1.17608,0.90649 -0.98374,-1.37384 1.28385,0.0323 -5.62909,-2.84229 -7.76453,-9.15539 -0.21036,-2.88855 -0.50531,1.01318 -2.08926,-1.00854 -2.16367,-5.18665 3.418,1.17413 -0.8157,-5.06048 -2.86652,2.88165 -2.36627,-1.8313 -5.43286,6.91535 -2.83316,-0.067 1.60318,3.14417 2.53817,-3.7613 2.09183,0.31171 -1.80328,0.81641 -3.14221,12.89111 -5.49958,4.96143 -2.12133,8.65246 -1.96485,0.50867 0.73618,-1.89746 -2.37528,1.68298 -2.27011,-0.89801 -2.91394,3.33972 0.66309,1.52295 -1.92255,0.32245 0.0847,4.03827 2.24957,-0.2226 -0.0436,-1.50689 1.31717,2.39398 -1.6071,3.41585 z m -225.2908,533.93357 0.66435,5.45475 -2.60869,2.1162 3.12428,-1.49545 0.8747,2.45351 -1.62371,2.65103 3.89382,4.36269 0.21289,3.43678 2.85752,1.2692 0.81057,2.82644 1.07093,-2.18446 3.49365,-1.15826 3.68219,4.26374 0.5002,4.30387 6.79877,-1.51506 2.9396,1.07182 1.50186,-3.54828 14.30039,-0.81647 6.22163,-3.19396 1.87766,2.27873 3.44619,0.1738 11.70195,-2.23961 5.69194,2.92844 1.56087,2.6605 3.22046,0.15393 -0.71565,2.58498 4.52867,1.72299 2.33551,4.13783 3.01656,-0.84237 1.16455,-3.05042 -11.58396,-15.46874 -3.03193,-1.6462 -10.96578,-2.08481 -6.10235,0.91318 -2.59331,3.02241 -20.07442,-1.41599 -3.12941,1.97456 -7.78506,-2.27917 -9.5383,1.91876 -5.42901,-4.74553 -2.56253,-6.88729 1.22098,-6.37828 2.87675,-4.49829 3.85662,-1.19677 2.76773,-6.61168 6.76929,-0.17576 8.11082,9.54396 1.48262,-2.12927 6.16391,0.14623 1.61345,2.54484 11.36849,0.0924 -3.064,1.74183 5.37772,1.44935 5.16353,-1.35957 0.80159,-1.82135 -2.256,-4.6216 -3.38849,3.41075 -4.05797,-1.01075 -7.40542,-9.35698 -7.99796,-2.78932 -2.66643,-3.75969 -6.24214,1.44234 0.70156,-2.75387 0.96832,1.29228 2.71899,-3.99253 3.91434,-1.96762 3.03706,-6.40854 7.20664,-7.22117 -2.38939,-1.67249 0.90034,-2.86754 -1.99691,0.98931 -0.72979,-3.43845 7.10788,-4.66688 -1.65704,-1.28685 2.15724,-2.64739 2.47147,1.27426 0.86957,-5.23161 -0.91575,-0.77954 -2.70874,1.9526 1.38643,-2.69102 -2.50608,1.39189 -7.74402,-1.94766 -0.4784,-5.09332 -8.24548,1.55476 -1.16199,2.57617 2.32013,7.80356 -5.8638,2.90819 -6.00617,6.38116 3.02938,4.81777 0.23598,5.07316 -1.53392,0.76406 1.51339,1.02341 -4.4299,2.27261 -3.38593,-1.05796 -6.00487,-4.34925 3.50391,-4.71003 -1.16455,-13.33143 1.54546,-8.63491 -2.92548,-7.96293 3.14095,-7.44344 -2.21239,1.75254 -6.43582,-0.94066 -3.01398,-2.1355 -4.57613,1.83653 -1.26843,3.67586 4.31833,16.46644 0.31807,5.31853 -0.84391,-0.76626 -2.19316,5.15474 0.68232,3.23454 -3.15122,1.06389 -5.84457,-2.18183 -2.56252,7.50147 1.91228,3.49325 -2.02001,1.47928 0.76952,2.30345 1.70579,-0.29272 3.48852,3.0619 1.26588,7.00805 2.06361,0.79693 -0.52584,11.25112 3.33334,6.0739 3.28588,3.57092 1.77889,-3.79413 z M 39.48193,681.46359 l 3.79394,0.57269 11.65065,-5.40562 5.08401,0.13231 1.01449,-2.06546 4.06311,0.013 -3.45389,4.67998 -0.45531,-1.1541 1.09145,11.53919 -6.31013,2.90553 -11.76095,-2.80716 -4.71737,2.16989 z m 85.80447,210.43629 1.01767,-1.09063 5.13617,1.09063 z m -85.80447,-126.9418 0.55423,1.95652 4.97884,-5.51532 -0.76183,1.73417 0.99269,-1.42585 3.87329,1.24089 0.33089,-4.46048 1.27101,-0.24927 5.18277,1.84758 1.19277,2.60782 1.08503,-3.02922 2.80878,2.69525 -1.59549,-2.9368 3.36155,-1.62793 1.15814,2.40907 1.79685,-13.2055 20.54511,9.08864 2.24702,5.72528 2.43299,1.72514 -2.50866,2.19244 0.50404,2.75462 2.36245,-2.58253 1.66218,6.5179 -1.51597,-0.53922 0.11543,1.30181 3.36797,-0.44548 1.34539,5.20012 -5.04426,0.86507 2.75235,2.00212 0.13723,2.12773 -0.65795,2.22508 -3.18969,-0.36698 5.00834,2.63167 0.43222,2.77771 3.06914,1.28037 -0.30269,5.36734 1.20816,-3.7291 2.17264,0.33867 5.10325,6.78962 0.90676,-1.45201 4.54021,2.05486 -2.27267,1.12361 2.32013,4.42756 -2.97423,-1.67762 1.40054,7.76721 -0.95036,2.22394 4.3055,9.95672 4.56715,0.94084 -2.19187,4.93721 3.1961,-3.22867 4.52739,-1.63479 h 6.52816 l 3.22689,2.48331 -0.0308,1.34688 -2.27011,0.16163 -17.44519,15.34437 2.37014,0.29261 -1.16968,0.89131 3.65012,1.78915 0.38477,1.85346 -4.69925,6.63798 -2.59074,1.06129 1.83917,1.20068 -3.03451,0.32362 2.2265,0.64661 -1.89303,0.323 0.82339,1.61506 -5.47134,2.34293 2.78184,3.16427 -3.21021,0.88272 -0.68745,1.98342 -2.65871,-0.34568 7.55291,0.20497 -0.6464,2.92067 2.5202,-2.53064 3.11274,1.12967 -7.12839,7.29309 3.99128,0.17747 0.4553,3.91509 5.14815,-3.05154 10.31551,3.07984 -7.91587,6.85592 2.46734,2.22083 -44.63506,-3e-5 -1.84412,-1.58495 -2.07516,0.94746 -2.56124,-2.49719 -1.04656,1.37982 1.06999,1.75486 h -1.92453 l -9.46867,-6.21741 -5.52906,-0.19236 -0.45787,-5.07227 -14.92131,-17.62896 z m 83.55036,126.27081 0.95807,0.36304 z m 17.29386,-4.51318 0.24496,1.69423 z m 49.23566,-81.55751 1.2351,0.28601 z m 12.30475,-12.38202 0.14237,1.60997 z m 215.26,-8.6848 1.34283,-0.15399 z m -50.11933,-5.85334 0.89777,0.84581 z m -1.66604,-0.44538 1.10043,0.79321 z m -0.0128,-0.53649 0.84006,0.62637 z m 214.82648,-2.76365 1.10046,1.05775 z m -182.77308,-8.37286 1.23893,0.55093 z m -29.08047,-11.82355 0.97989,-1.67607 z m 3.12045,-3.05667 1.80582,-1.34476 z m -199.73478,-3.93309 0.84648,0.87698 z m -33.10509,-20.73822 -0.28729,-0.96251 z m 50.44127,-1.32718 0.59894,0.81178 z m -0.50148,-2.13804 1.33513,0.97178 z m 22.64976,-0.5375 1.55188,-0.38284 z m 119.2473,-18.77293 0.60538,0.80095 z m -250.60312,-0.80363 1.59549,-0.35274 z m 257.69306,-1.66567 1.19403,1.22893 z m -283.29525,-0.0943 1.62883,-0.0117 z m 245.91799,-14.04289 0.11929,1.11232 z m -59.90263,-1.56198 0.0603,1.22527 z m 64.20045,-2.55618 1.41849,1.75304 z m -196.40144,0.89018 1.0209,0.35759 z m 30.53229,-4.89952 0.61434,0.90242 z m -38.58925,0.34491 1.35437,0.27747 z m 537.61901,-0.57702 0.21546,-1.24759 z m 14.5172,-12.73585 1.01709,-0.0884 z m -343.47586,-62.59435 -0.94479,1.06774 z m -88.76788,-45.83387 0.2578,1.17255 z m 1.33513,0.35755 0.98115,0.93902 z m -13.36417,-2.3447 1.60574,-0.33777 z m -2.44197,-2.32638 -1.02349,0.26449 z m 5.25459,0.23913 0.94138,-0.43286 z m 394.00076,-67.73328 0.31165,-0.98352 z m 17.01813,-31.25161 1.37232,0.98306 z m -34.72473,-332.66046 0.20618,1.47137 z" /><path
       id="path9486"
       style="opacity:1;fill:#38c04c;fill-rule:evenodd;stroke:none;stroke-width:1.4175;stroke-linecap:round;stroke-linejoin:round;stroke-dashoffset:1.6824"
       d="m 561.09369,520.47015 3.22687,0.13236 0.26678,-2.41956 -0.12958,-1.58981 -1.37744,0.21904 z m 76.63214,140.64341 1.02216,-0.74407 z m -138.82797,5.1277 2.0213,-0.24952 -1.13889,0.74851 z m -125.61258,54.76178 0.5079,1.08673 z m -92.57932,77.13008 0.96448,-0.71063 z m 225.28952,-133.93769 2.41632,0.47448 z m 14.80829,16.74038 2.10337,-0.64559 z m -140.53247,29.62472 0.80417,-1.22121 0.83493,0.9282 z m -75.00714,94.58099 0.59766,1.42111 z m 196.38092,-160.35678 -0.99268,0.55454 z m -2.08029,0.33533 -1.27484,-1.48897 1.17737,-1.36801 1.07733,1.65123 z m 0.44119,5.59825 1.78147,0.66725 -0.64255,0.9851 z m -1.95715,1.97806 0.72336,-1.07364 0.74386,1.67549 z m 141.72394,1.45111 -5.13404,5.20069 2.25855,-4.71099 1.34411,0.056 -0.54382,-1.77795 4.32221,-1.52967 1.07733,3.72565 -1.94818,0.20834 z m -13.79255,13.14108 -1.60314,-1.49437 3.14349,-3.5153 0.89264,2.35852 z m 11.29029,-7.13504 -2.0893,3.62328 -5.77142,0.9646 1.2851,-2.90209 -1.26203,-1.34754 5.78943,-0.33825 z m 0.05,-15.16779 -0.15131,-1.28932 2.36755,1.19534 z m -2.26496,0.9602 1.18762,-1.33867 -1.13885,-0.2636 1.55188,-0.11615 -0.2591,1.77712 z m 38.06342,-12.47334 1.30047,-3.31302 1.50574,0.44894 2.70618,-2.25955 3.24994,0.80133 z m -10.47711,11.09944 3.3551,-1.32337 1.85077,0.54166 -0.99018,0.6721 z m 11.23895,-9.90282 -2.3548,0.91788 1.26978,-1.47757 z m -151.97791,44.27516 -0.58099,1.6142 -4.05154,0.0233 0.98883,-0.85563 z m -6.80389,0.89078 7.09247,-4.9612 -0.32321,1.47127 z M 392.85437,787.611 l 13.30386,-4.70789 9.17405,2.27128 z m 53.0025,-103.63226 -3.7399,-2.99627 5.4534,-0.92951 0.0513,1.08766 z m -1.07605,12.71499 -9.90381,-3.18329 -7.0989,-13.78289 11.62756,0.2593 8.32373,5.31463 -0.2052,2.82982 2.90625,5.11778 -2.15213,0.5434 z m -131.97528,89.87798 -9.89871,-3.22845 6.48712,-2.92594 4.89163,1.42964 -0.79388,1.38851 z m -9.44082,7.51682 3.31793,0.58625 z m 18.09158,4.88604 -3.81555,-1.32248 1.70706,-4.16777 3.21277,-1.82168 1.50442,5.56615 z m -6.51404,1.41865 -1.23511,-2.03948 8.14933,2.37811 z m -0.2655,4.33018 2.82803,-0.0372 0.57459,1.44548 z m 10.90548,6.92586 -5.18405,1.29024 -7.66833,-1.19277 -0.64639,-1.35052 1.71987,0.59638 0.28089,-1.13377 -3.26279,-0.0244 4.83261,-0.89394 0.37323,-2.81396 2.2201,2.28426 1.06835,-2.43946 3.02939,1.24667 -3.10891,1.2505 -1.98151,3.19228 5.57523,-4.33504 4.31704,-0.38349 0.7041,2.31889 z m -29.31643,2.10209 3.88998,-4.167 -0.0539,1.30051 z m -24.86728,4.17471 -2.97423,3.90932 1.53906,4.28082 -2.04695,1.14737 -0.0423,2.3628 -1.38386,-0.19114 -0.0872,2.62075 3.64242,9.87466 6.58203,5.81034 -3.16661,-5.55691 2.65488,-2.08515 v -6.5266 l -6.10364,-5.79823 3.53212,-1.98048 2.24062,4.27531 2.92421,1.12629 -1.37746,1.62086 1.77376,2.09175 3.66679,2.35424 4.44788,0.49396 -0.28858,-7.87824 -7.68501,-4.68061 7.36438,-3.45798 0.14621,-3.2706 3.30127,-2.19382 -6.91036,2.94798 -8.6777,0.67527 -0.38989,-6.52758 1.49672,-4.52869 7.24896,-10.16476 -6.4371,3.30159 -5.77147,7.72377 z m 13.40901,36.5941 -3.86558,-2.7602 -1.95461,-3.0358 1.13377,-4.27127 4.69028,1.80699 1.88663,5.89933 z m -19.04196,-37.05197 0.63872,1.51407 z m 0.79903,-2.15085 0.80543,-2.37784 z m 0.15135,9.6156 -0.62717,-2.11379 z m -2.04311,1.25702 1.29666,-0.82605 z m 0.13083,-17.63294 -1.92767,0.41555 -1.04399,-3.86953 1.98666,0.16802 z m -1.51726,-5.37276 -0.71438,-2.35749 2.21624,0.45149 z m 7.1207,-1.33009 0.55663,3.5708 -1.72374,2.45358 -2.08542,-1.42366 -2.04311,1.19279 -0.33731,-2.43818 2.75748,-2.3164 -0.19751,-2.74743 2.64845,0.99663 2.0354,-2.13181 2.11237,1.93684 z m -3.02553,-8.33137 3.61293,0.34637 z m 2.73567,-1.46503 -3.24484,-1.36246 -0.78363,-3.42304 2.42786,-1.56282 8.17622,0.26561 1.47621,1.90025 z m 111.21471,-76.77168 1.27872,1.56083 -2.69721,2.1834 2.12775,-0.27983 0.34628,4.72362 -1.93793,1.3068 0.96833,0.86594 -1.07605,1.41473 -1.89047,0.2435 -2.46634,-4.51409 -2.36118,0.0309 2.77802,-1.28645 -1.6019,-5.15933 5.21866,-3.96738 2.36886,3.35595 z m -3.6886,-4.07759 -5.5842,4.20402 1.6904,-5.19018 -1.56601,0.76544 -0.58612,-5.83243 1.75968,-1.45848 1.98025,0.93919 2.73694,4.50446 z m 65.58424,-4.50324 1.54163,-2.15184 0.58484,1.37177 z m -164.9098,142.33725 0.61435,1.27591 z m -13.71811,-58.50882 1.36976,0.91345 z m 118.86381,-79.76918 0.22446,2.94243 z m -2.47275,-4.75407 0.59769,2.91708 z m -3.51928,7.73263 -1.5596,-1.17685 3.06659,-2.69369 1.04013,1.71287 z m -3.34104,2.46282 0.58869,1.08346 -2.29319,0.43465 0.572,-2.57204 2.76388,-2.14699 0.63486,1.23485 z m 121.9817,-103.16136 -2.78186,0.0828 -1.63907,1.24033 0.80671,0.78158 -2.43042,-1.38855 1.99435,4.96882 1.45953,-0.0551 0.3386,3.71237 1.29409,0.82862 0.0988,-2.44172 1.78659,1.04532 -1.3454,2.33628 3.20636,15.20326 6.22678,4.2189 1.09915,-1.03773 -1.79941,-3.13675 1.40436,1.33094 1.18893,-2.21803 1.19278,0.45075 2.05335,-6.54593 -0.15647,-7.31003 6.09467,-2.11551 -2.56509,-2.91412 -0.14365,-2.89902 5.62268,-4.5882 -1.18253,-4.32226 -14.94716,4.00939 z m 51.53148,-46.18802 3.4436,-10.34992 -0.9773,-6.28424 5.07636,-5.87054 0.81567,-3.099 2.84986,1.89838 -1.1543,-3.07337 4.19006,-9.45938 -2.16882,-10.00394 3.13715,-4.59762 c -17.63226,-1.47545 -24.9342,51.80373 -15.21228,50.83963 z m 123.40277,-184.0067 2.14569,-13.41857 -2.71002,-2.05799 1.24792,-0.062 -0.82727,-2.01257 6.00232,-8.54938 -0.72333,-2.90173 2.68945,-4.2793 0.94654,-8.38294 -4.41321,-11.1593 -4.43275,-25.7698 c 0,0 -6.70598,-7.49794 -10.88199,-10.19274 -3.55642,-2.29496 -7.4979,-5.0218 -11.7277,-4.86779 -2.75127,0.10018 -6.2725,1.19117 -7.3778,3.71264 -1.0799,2.46355 0.44286,5.73725 2.21705,7.75901 1.48511,1.69232 4.20137,1.64429 6.19869,2.68363 4.65264,2.42106 10.22385,4.62991 13.20326,8.94636 1.53699,2.22673 2.08083,4.58302 1.72367,7.26502 -0.31918,2.39679 -2.86959,4.12285 -3.17684,6.52121 -0.4147,3.23694 3.69473,6.8526 1.93046,9.59799 -1.87971,2.92503 -8.36752,-0.60399 -10.15624,2.37755 -1.55603,2.59368 2.90155,5.79786 2.33363,8.7687 -0.36818,1.92597 -2.98815,2.83376 -3.50301,4.72581 -0.99048,3.63987 -0.11273,7.71725 1.20305,11.25256 1.28159,3.44344 6.16684,5.3868 6.27907,9.05928 0.0812,2.65696 -2.14654,5.05426 -4.13412,6.81936 -2.64284,2.34702 -8.43014,1.07108 -9.65355,4.38717 -0.90988,2.46626 3.11825,4.52457 3.34022,7.14393 0.41691,4.91958 -3.7303,9.34849 -3.92611,14.28183 -0.11215,2.82547 -1.20432,7.92039 1.59324,8.33213 4.13895,0.60917 11.02428,-19.09701 18.96632,-26.51307 1.60949,-1.50289 5.62336,-3.467 5.62336,-3.467 z m -226.79531,324.08662 -0.0154,1.10149 2.31116,-0.9659 -5.72147,4.82054 -3.20892,7.72579 2.23034,1.25192 -3.88354,0.98234 3.23715,1.50295 -4.60049,-0.78883 -0.15262,5.14419 -0.97858,-1.19044 -1.17355,2.37816 -1.74683,-0.46631 -0.0924,1.66418 -6.7821,2.69919 -1.55957,2.30713 -0.94266,-1.21401 -1.84814,1.9632 -4.40683,-0.61789 -13.73737,6.67392 -12.05465,0.90695 -8.46866,5.21788 0.63488,2.70647 4.40168,0.16841 -4.60178,0.44865 -2.37271,-1.86544 -3.02167,2.4902 -0.28729,-2.39249 -2.74466,1.85259 -0.21545,2.49112 -2.20343,-1.73526 -2.35602,4.18095 -0.1398,-2.07554 -1.98795,0.77757 -0.31552,6.94864 3.88229,1.85997 -1.08633,3.02588 -3.03064,-3.14405 -0.63873,-4.64268 -1.79172,0.59872 1.22613,-2.63659 -2.88317,-2.79645 0.70156,-2.25839 -3.18969,-3.18192 -5.40979,-0.33688 -2.78568,6.41081 3.16532,2.02405 -1.89304,4.3016 -2.21497,-0.73997 -5.44439,6.02932 -5.50983,0.26456 1.07733,1.99429 -1.36206,0.24012 5.57523,1.76294 6.56408,-2.15715 4.81083,5.26534 3.2474,0.98846 2.37528,-1.73304 -0.15134,-2.36361 1.02219,2.86685 0.0757,-2.32888 0.36423,1.90394 2.52917,-0.27858 0.76312,-2.81045 0.48481,3.24181 1.63525,-2.16201 -1.09787,3.33021 2.53946,-0.62004 -0.66052,1.03853 2.18545,0.36199 -2.17135,0.74451 1.30178,2.17178 -2.48941,-0.89333 2.33936,2.40652 -4.6441,-2.02531 -15.08274,-1.12311 -2.02258,1.91759 -4.01437,-1.2604 -5.73298,5.84201 1.29282,3.45557 -2.16238,0.37723 1.50442,1.786 -2.79468,-1.08545 -0.21545,1.73208 -1.0722,-1.1701 -7.02964,3.11633 0.94266,-1.24187 -2.06747,-1.11235 -4.01563,1.41768 4.77875,5.57145 -0.17569,4.11113 9.98334,2.04584 4.32473,4.00174 4.512,1.39673 8.47763,-1.5391 6.56408,-4.3891 9.50751,-0.15905 2.7934,-2.05741 -2.14316,-1.48024 3.87457,-6.1857 -3.07168,-5.24362 1.22482,-10.05622 4.71335,-8.54411 1.08505,0.44046 -0.76184,4.65178 0.9773,1.20417 1.45056,-0.75997 0.99142,-7.0608 2.36371,0.92851 -0.51685,-3.73226 4.61716,-3.55838 6.46533,0.41369 6.37937,5.83416 1.52368,4.0745 3.83224,2.32515 1.80454,5.14624 5.80609,-0.28366 6.76416,2.30127 -0.86572,4.86753 11.97128,5.15538 29.9064,-13.94278 5.94461,0.5327 2.74723,-2.12703 4.33883,0.25804 2.15982,-0.94227 -0.32833,-2.12731 7.40029,0.29915 12.87677,-5.44959 0.82596,-1.57457 23.01145,-5.93234 7.85687,-5.79585 7.75299,-0.23009 0.69897,-2.5569 4.88651,-1.89261 3.30899,-4.06776 4.22211,-0.53125 7.18231,-7.15032 -0.65924,-10.04075 11.05298,-1.93671 10.33087,-5.85645 5.24182,0.11736 5.95099,-5.92484 0.43091,-5.64114 -13.81684,-0.78387 -0.43737,-3.0304 1.93792,-1.31924 1.82764,-7.11974 4.70953,-2.44386 3.77454,-5.02245 6.61151,-1.80798 1.31073,-8.10599 3.40137,-1.91463 2.21106,-6.20997 11.4057,0.75064 0.39245,-2.04695 -2.38549,-3.55796 0.68872,-1.89555 12.9588,-3.16072 -5.00958,-1.99623 1.94689,-3.28882 12.1778,-4.21104 3.8476,0.6595 -4.03357,-1.72585 -3.39618,0.70918 -0.60541,-1.5932 5.22253,-2.51728 -7.59008,-2.31888 -5.62269,2.41934 3.57831,1.43223 -2.49328,-0.43823 -2.75745,2.40593 -15.76892,1.66065 -0.92218,2.07701 -0.79773,-1.32898 -3.72961,-0.20069 -3.89258,2.0768 -2.79981,-1.52949 -1.73138,1.96714 -2.37531,-0.87535 -6.41015,8.94471 -3.78351,1.04553 -2.76007,3.27702 1.26843,3.74785 -1.61597,-1.16631 -4.27087,1.60395 0.0731,3.25456 -7.98383,11.45161 -4.75567,1.2137 -0.10773,1.51389 -5.50598,-0.51279 -8.8624,2.58426 -0.42966,3.37512 -0.43093,-1.79866 -2.70102,1.92804 -0.7811,-1.52038 -1.28766,2.55534 -0.13211,-2.79475 -1.68143,2.51014 1.58524,-4.51504 -3.1012,2.98578 -1.51596,-2.95343 -5.72784,2.29348 -3.23331,3.39222 4.8942,-8.49021 -2.40863,0.63196 1.73144,-1.19403 -2.30859,-0.51939 -6.3563,2.28836 3.08582,-2.36219 0.8298,-3.09391 -17.61963,-1.49826 -2.11877,2.64634 -3.37051,-0.80078 3.2756,0.45612 1.54675,-2.93946 4.35169,0.90219 6.35629,-2.69792 4.15546,-4.50656 -0.53482,-3.80743 -11.80197,-5.22391 -6.33194,2.80548 -9.28949,-1.1992 -4.34015,1.4772 -3.04602,-1.44733 -18.35196,16.57734 2.57791,4.89872 -2.80621,-3.37767 -9.11634,-1.65582 -2.21496,0.87331 -0.56305,2.649 1.08633,0.0997 -1.11453,0.35096 0.11542,-1.95833 -4.88651,-3.46611 -1.12863,2.78082 3.94382,8.86833 -6.70642,5.75501 7.71579,-0.7188 1.30691,1.46208 -2.828,-0.97598 -3.43595,1.06259 -4.42861,3.60413 5.83044,1.20788 4.10929,-2.06967 z m -134.48658,104.65049 -0.6099,0.82039 z m 14.57241,-15.73196 1.10556,1.26352 z m -43.02943,0.0141 1.31589,-0.26297 z m 14.99809,-1.4611 1.02219,0.1642 z m -27.22589,-10.82858 0.8298,0.70961 z m 148.04688,0.512 1.34283,-0.15399 z m -103.53098,-3.92561 1.14917,0.2785 z m 60.83887,-56.27409 0.6015,1.3119 z m 7.93768,-14.36644 0.89264,0.95396 z m -4.1965,-1.87215 0.36682,-1.30946 z m 1.39413,-3.63711 1.07221,0.82031 z m 140.39008,-22.63168 -2.82929,-0.008 1.76349,0.26063 z m 3.76684,-1.82921 0.61564,-1.15405 z m -1.9841,-1.31616 0.97217,0.57058 z m -3.87841,-2.10906 0.86444,-0.53322 z m 1.51211,-1.93719 -0.25394,1.11984 z m -0.86952,-4.17888 0.51688,1.00767 z m 157.64412,-307.95679 0.0847,-4.14667 1.32359,5.52985 z m 0.84137,8.43994 -1.43134,-0.86682 0.80286,-4.84674 z m -317.20191,377.7005 4.7826,-3.03241 -1.09272,1.07776 z m -11.09407,10.81221 1.30179,-1.50847 -0.001,1.04207 z" /></g></svg>
