<svg viewBox="0 0 512 512" xmlns="http://www.w3.org/2000/svg">
  <rect width="512" height="512" rx="112" fill="#0E3A5C"/>
  <g transform="translate(156,86) scale(1.0)" fill="none" stroke="#ffffff" stroke-width="11" stroke-linecap="round" stroke-linejoin="round">
    <path d="M100 40 C 82 76 56 116 46 164 C 38 202 50 228 78 238 L 122 238 C 150 228 162 202 154 164 C 144 116 118 76 100 40 Z"/>
    <g stroke-width="6">
      <line x1="100" y1="14" x2="100" y2="2"/>
      <line x1="78" y1="18" x2="72" y2="8"/>
      <line x1="122" y1="18" x2="128" y2="8"/>
      <line x1="60" y1="28" x2="52" y2="20"/>
      <line x1="140" y1="28" x2="148" y2="20"/>
    </g>
  </g>
  <g transform="translate(156,86)" fill="#ffffff">
    <rect x="96" y="96" width="8" height="142"/>
    <path d="M100 60 C96 70 96 80 100 88 C104 80 104 70 100 60 Z"/>
    <circle cx="70" cy="132" r="5"/><circle cx="130" cy="132" r="5"/>
    <circle cx="62" cy="162" r="5"/><circle cx="138" cy="162" r="5"/>
    <rect x="58" y="246" width="84" height="7" rx="2"/>
    <path d="M92 246 L92 224 C92 218 108 218 108 224 L108 246 Z"/>
  </g>
</svg>
