<svg xmlns="http://www.w3.org/2000/svg" viewBox="0 0 1200 675" role="img" aria-label="Cenderawasih Papua">
  <rect width="1200" height="675" fill="#f7fbf8"/>
  <rect x="34" y="34" width="1132" height="607" fill="#ffffff" stroke="#0f5e4b" stroke-opacity="0.6" stroke-dasharray="12 10"/>
  <text x="70" y="96" font-family="ui-monospace, SFMono-Regular, Menlo, monospace" font-size="15" font-weight="700" letter-spacing="4" fill="#0f5e4b">JURNAL NaLI, VISUAL PENJELAS</text>
  <text x="70" y="150" font-family="Georgia, serif" font-size="34" font-weight="700" fill="#1c1c1c">Cenderawasih Papua</text>
  <g>
  <rect x="70" y="206" width="1060" height="360" fill="#cfeee6" fill-opacity="0.35"/><polygon points="150,300 250,250 360,360 320,430 230,420 170,360" fill="#eaf8f3" stroke="#0f5e4b" stroke-opacity="0.5" stroke-width="1.5"/><polygon points="300,470 470,460 600,478 470,500 330,498" fill="#eaf8f3" stroke="#0f5e4b" stroke-opacity="0.5" stroke-width="1.5"/><polygon points="390,250 540,235 600,330 510,380 410,350" fill="#eaf8f3" stroke="#0f5e4b" stroke-opacity="0.5" stroke-width="1.5"/><polygon points="650,270 700,250 690,330 730,360 700,420 668,360 640,400 660,330" fill="#eaf8f3" stroke="#0f5e4b" stroke-opacity="0.5" stroke-width="1.5"/><polygon points="790,300 825,295 820,335 786,338" fill="#eaf8f3" stroke="#0f5e4b" stroke-opacity="0.5" stroke-width="1.5"/><polygon points="880,280 1080,260 1090,370 980,400 880,360" fill="#2dd4a7" stroke="#0f5e4b" stroke-opacity="0.9" stroke-width="1.5"/><polygon points="640,500 760,492 900,505 760,524" fill="#eaf8f3" stroke="#0f5e4b" stroke-opacity="0.5" stroke-width="1.5"/>
  <g><rect x="70" y="176" width="112" height="30" fill="#eaf8f3" stroke="#0f5e4b" stroke-opacity="0.55" stroke-dasharray="6 6"/><text x="80" y="196" font-family="ui-monospace, SFMono-Regular, Menlo, monospace" font-size="14" font-weight="700" letter-spacing="1" fill="#0f5e4b">BERVARIASI</text></g>
  <g transform="translate(950,250)"><rect x="-70" y="-60" width="150" height="150" fill="#eaf8f3" fill-opacity="0.6" stroke="#0f5e4b" stroke-opacity="0.5" stroke-dasharray="6 6"/><path d="M-45 28 q10 -40 50 -44 q4 -16 18 -16 q-2 14 -8 18 q26 8 30 40 q-18 -14 -34 -12 q-30 6 -36 30 q-12 -6 -12 -16z" fill="#0f5e4b"/><path d="M41 34 q34 6 60 26 q-30 4 -58 -8z" fill="#0f5e4b"/><text x="5" y="74" text-anchor="middle" font-family="ui-monospace, SFMono-Regular, Menlo, monospace" font-size="13" fill="#4f5b57">BIRD</text></g>
  <text x="70" y="540" font-family="ui-monospace, SFMono-Regular, Menlo, monospace" font-size="17" fill="#1c1c1c">Cenderawasih . sebaran disorot pada peta Nusantara.</text></g>
  <line x1="70" y1="600" x2="1130" y2="600" stroke="#0f5e4b" stroke-opacity="0.32" stroke-dasharray="7 8"/>
  <text x="70" y="628" font-family="ui-monospace, SFMono-Regular, Menlo, monospace" font-size="14" fill="#4f5b57">VISUAL PENJELAS, BUKAN FOTO LAPANGAN. NaLI by NatIve, non-AI, berdasarkan sumber yang dicantumkan.</text>
</svg>