<svg xmlns="http://www.w3.org/2000/svg" viewBox="0 0 1200 675" role="img" aria-label="Gambut, karbon, dan api">
  <rect width="1200" height="675" fill="#f7fbf8"/>
  <rect x="34" y="34" width="1132" height="607" fill="#ffffff" stroke="#0f5e4b" stroke-opacity="0.6" stroke-dasharray="12 10"/>
  <text x="70" y="96" font-family="ui-monospace, SFMono-Regular, Menlo, monospace" font-size="15" font-weight="700" letter-spacing="4" fill="#0f5e4b">JURNAL NaLI, VISUAL PENJELAS</text>
  <text x="70" y="150" font-family="Georgia, serif" font-size="34" font-weight="700" fill="#1c1c1c">Gambut, karbon, dan api</text>
  <g>
  <rect x="70" y="206" width="1060" height="360" fill="#cfeee6" fill-opacity="0.15"/>
  <rect x="300" y="240" width="240" height="300" fill="#eaf8f3" stroke="#0f5e4b" stroke-opacity="0.6"/>
  <rect x="300" y="240" width="240" height="40" fill="#2dd4a7" fill-opacity="0.5"/>
  <g stroke="#0f5e4b" stroke-opacity="0.3"><line x1="300" y1="320" x2="540" y2="320"/><line x1="300" y1="400" x2="540" y2="400"/><line x1="300" y1="480" x2="540" y2="480"/></g>
  <text x="420" y="305" text-anchor="middle" font-family="ui-monospace, SFMono-Regular, Menlo, monospace" font-size="13" fill="#0f5e4b">VEGETASI</text>
  <text x="420" y="450" text-anchor="middle" font-family="ui-monospace, SFMono-Regular, Menlo, monospace" font-size="13" fill="#4f5b57">GAMBUT, KARBON TUA</text>
  <path d="M620 460 l0 -180" stroke="#0f5e4b" stroke-width="3" stroke-dasharray="9 8"/><polygon points="612,290 628,290 620,266" fill="#0f5e4b"/>
  <text x="650" y="360" font-family="ui-monospace, SFMono-Regular, Menlo, monospace" font-size="15" fill="#1c1c1c">Kering dan terbakar =</text>
  <text x="650" y="386" font-family="ui-monospace, SFMono-Regular, Menlo, monospace" font-size="15" fill="#1c1c1c">karbon dan kabut asap lepas.</text>
  <g><rect x="70" y="176" width="217.6" height="30" fill="#eaf8f3" stroke="#0f5e4b" stroke-opacity="0.55" stroke-dasharray="6 6"/><text x="80" y="196" font-family="ui-monospace, SFMono-Regular, Menlo, monospace" font-size="14" font-weight="700" letter-spacing="1" fill="#0f5e4b">GAMBUT, GUDANG KARBON</text></g></g>
  <line x1="70" y1="600" x2="1130" y2="600" stroke="#0f5e4b" stroke-opacity="0.32" stroke-dasharray="7 8"/>
  <text x="70" y="628" font-family="ui-monospace, SFMono-Regular, Menlo, monospace" font-size="14" fill="#4f5b57">VISUAL PENJELAS, BUKAN FOTO LAPANGAN. NaLI by NatIve, non-AI, berdasarkan sumber yang dicantumkan.</text>
</svg>