<svg xmlns="http://www.w3.org/2000/svg" viewBox="0 0 1200 675" role="img" aria-label="Jakarta, tanah turun">
  <rect width="1200" height="675" fill="#f7fbf8"/>
  <rect x="34" y="34" width="1132" height="607" fill="#ffffff" stroke="#0f5e4b" stroke-opacity="0.6" stroke-dasharray="12 10"/>
  <text x="70" y="96" font-family="ui-monospace, SFMono-Regular, Menlo, monospace" font-size="15" font-weight="700" letter-spacing="4" fill="#0f5e4b">JURNAL NaLI, VISUAL PENJELAS</text>
  <text x="70" y="150" font-family="Georgia, serif" font-size="34" font-weight="700" fill="#1c1c1c">Jakarta, tanah turun</text>
  <g>
  <rect x="70" y="206" width="1060" height="360" fill="#cfeee6" fill-opacity="0.25"/>
  <line x1="70" y1="386" x2="1130" y2="386" stroke="#0f5e4b" stroke-opacity="0.5" stroke-dasharray="6 6"/>
  <rect x="320" y="386" width="120" height="150" fill="#eaf8f3" stroke="#0f5e4b" stroke-opacity="0.6"/>
  <text x="380" y="560" text-anchor="middle" font-family="ui-monospace, SFMono-Regular, Menlo, monospace" font-size="14" fill="#4f5b57">TANAH TURUN</text>
  <path d="M380 386 l0 130" stroke="#0f5e4b" stroke-width="3"/><polygon points="372,500 388,500 380,524" fill="#0f5e4b"/>
  <rect x="760" y="330" width="120" height="56" fill="#2dd4a7" fill-opacity="0.5" stroke="#0f5e4b" stroke-opacity="0.6"/>
  <text x="820" y="320" text-anchor="middle" font-family="ui-monospace, SFMono-Regular, Menlo, monospace" font-size="14" fill="#4f5b57">LAUT NAIK</text>
  <path d="M820 386 l0 -40" stroke="#0f5e4b" stroke-width="3"/><polygon points="812,352 828,352 820,330" fill="#0f5e4b"/>
  <g><rect x="70" y="176" width="256" height="30" fill="#eaf8f3" stroke="#0f5e4b" stroke-opacity="0.55" stroke-dasharray="6 6"/><text x="80" y="196" font-family="ui-monospace, SFMono-Regular, Menlo, monospace" font-size="14" font-weight="700" letter-spacing="1" fill="#0f5e4b">BANJIR ROB = TURUN + NAIK</text></g>
  <text x="70" y="556" font-family="ui-monospace, SFMono-Regular, Menlo, monospace" font-size="15" fill="#1c1c1c">Pengambilan air tanah mempercepat penurunan muka tanah.</text></g>
  <line x1="70" y1="600" x2="1130" y2="600" stroke="#0f5e4b" stroke-opacity="0.32" stroke-dasharray="7 8"/>
  <text x="70" y="628" font-family="ui-monospace, SFMono-Regular, Menlo, monospace" font-size="14" fill="#4f5b57">VISUAL PENJELAS, BUKAN FOTO LAPANGAN. NaLI by NatIve, non-AI, berdasarkan sumber yang dicantumkan.</text>
</svg>