<svg xmlns="http://www.w3.org/2000/svg" viewBox="0 0 1200 675" role="img" aria-label="Mangrove dan karbon biru">
  <rect width="1200" height="675" fill="#f7fbf8"/>
  <rect x="34" y="34" width="1132" height="607" fill="#ffffff" stroke="#0f5e4b" stroke-opacity="0.6" stroke-dasharray="12 10"/>
  <text x="70" y="96" font-family="ui-monospace, SFMono-Regular, Menlo, monospace" font-size="15" font-weight="700" letter-spacing="4" fill="#0f5e4b">JURNAL NaLI, VISUAL PENJELAS</text>
  <text x="70" y="150" font-family="Georgia, serif" font-size="34" font-weight="700" fill="#1c1c1c">Mangrove dan karbon biru</text>
  <g>
  <rect x="70" y="206" width="500" height="360" fill="#eaf8f3" fill-opacity="0.5"/>
  <rect x="570" y="206" width="560" height="360" fill="#cfeee6" fill-opacity="0.5"/>
  <line x1="570" y1="206" x2="570" y2="566" stroke="#0f5e4b" stroke-opacity="0.3" stroke-dasharray="6 6"/>
  <g stroke="#0f5e4b" stroke-opacity="0.7" stroke-width="3" fill="none">
    <path d="M560 470 l0 -120 M520 470 q40 -30 40 -120 M600 470 q-40 -30 -40 -120"/>
    <path d="M520 470 q-20 30 -50 40 M560 470 q0 30 0 50 M600 470 q20 30 50 40"/>
    <path d="M650 470 l0 -100 M620 470 q30 -20 30 -100 M680 470 q-30 -20 -30 -100"/>
  </g>
  <ellipse cx="540" cy="350" rx="70" ry="40" fill="#2dd4a7" fill-opacity="0.6"/>
  <ellipse cx="660" cy="360" rx="60" ry="34" fill="#2dd4a7" fill-opacity="0.6"/>
  <path d="M820 470 l0 -60" stroke="#0f5e4b" stroke-width="3"/><polygon points="812,418 828,418 820,398" fill="#0f5e4b"/>
  <text x="760" y="500" font-family="ui-monospace, SFMono-Regular, Menlo, monospace" font-size="14" fill="#0f5e4b">KARBON BIRU DI TANAH</text>
  <g><rect x="70" y="176" width="256" height="30" fill="#eaf8f3" stroke="#0f5e4b" stroke-opacity="0.55" stroke-dasharray="6 6"/><text x="80" y="196" font-family="ui-monospace, SFMono-Regular, Menlo, monospace" font-size="14" font-weight="700" letter-spacing="1" fill="#0f5e4b">MANGROVE, PESISIR, KARBON</text></g>
  <text x="70" y="540" font-family="ui-monospace, SFMono-Regular, Menlo, monospace" font-size="16" fill="#1c1c1c">Akar meredam gelombang; lumpur menyimpan karbon.</text></g>
  <line x1="70" y1="600" x2="1130" y2="600" stroke="#0f5e4b" stroke-opacity="0.32" stroke-dasharray="7 8"/>
  <text x="70" y="628" font-family="ui-monospace, SFMono-Regular, Menlo, monospace" font-size="14" fill="#4f5b57">VISUAL PENJELAS, BUKAN FOTO LAPANGAN. NaLI by NatIve, non-AI, berdasarkan sumber yang dicantumkan.</text>
</svg>