<svg xmlns="http://www.w3.org/2000/svg" viewBox="0 0 1200 675" role="img" aria-label="Profil bahaya Merapi">
  <rect width="1200" height="675" fill="#f7fbf8"/>
  <rect x="34" y="34" width="1132" height="607" fill="#ffffff" stroke="#0f5e4b" stroke-opacity="0.6" stroke-dasharray="12 10"/>
  <text x="70" y="96" font-family="ui-monospace, SFMono-Regular, Menlo, monospace" font-size="15" font-weight="700" letter-spacing="4" fill="#0f5e4b">JURNAL NaLI, VISUAL PENJELAS</text>
  <text x="70" y="150" font-family="Georgia, serif" font-size="34" font-weight="700" fill="#1c1c1c">Profil bahaya Merapi</text>
  <g>
  <rect x="70" y="206" width="1060" height="360" fill="#cfeee6" fill-opacity="0.18"/>
  <polygon points="70,560 520,250 760,560" fill="#eaf8f3" stroke="#0f5e4b" stroke-opacity="0.6"/>
  <polygon points="430,330 520,250 610,330 560,360 480,360" fill="#ffffff" stroke="#0f5e4b" stroke-opacity="0.5"/>
  <path d="M520 250 q-30 -36 8 -64 q34 22 6 64z" fill="#2dd4a7" fill-opacity="0.7"/>
  <path d="M540 330 q120 30 230 200" fill="none" stroke="#0f5e4b" stroke-width="3" stroke-dasharray="9 8"/>
  <polygon points="760,520 800,540 762,556" fill="#0f5e4b"/>
  <g><rect x="820" y="360" width="112" height="30" fill="#eaf8f3" stroke="#0f5e4b" stroke-opacity="0.55" stroke-dasharray="6 6"/><text x="830" y="380" font-family="ui-monospace, SFMono-Regular, Menlo, monospace" font-size="14" font-weight="700" letter-spacing="1" fill="#0f5e4b">AWAN PANAS</text></g>
  <text x="820" y="430" font-family="ui-monospace, SFMono-Regular, Menlo, monospace" font-size="16" fill="#1c1c1c">Aliran panas meluncur cepat menuruni lereng.</text></g>
  <line x1="70" y1="600" x2="1130" y2="600" stroke="#0f5e4b" stroke-opacity="0.32" stroke-dasharray="7 8"/>
  <text x="70" y="628" font-family="ui-monospace, SFMono-Regular, Menlo, monospace" font-size="14" fill="#4f5b57">VISUAL PENJELAS, BUKAN FOTO LAPANGAN. NaLI by NatIve, non-AI, berdasarkan sumber yang dicantumkan.</text>
</svg>