<svg xmlns="http://www.w3.org/2000/svg" viewBox="0 0 1200 675" role="img" aria-label="Pemutihan karang">
  <rect width="1200" height="675" fill="#f7fbf8"/>
  <rect x="34" y="34" width="1132" height="607" fill="#ffffff" stroke="#0f5e4b" stroke-opacity="0.6" stroke-dasharray="12 10"/>
  <text x="70" y="96" font-family="ui-monospace, SFMono-Regular, Menlo, monospace" font-size="15" font-weight="700" letter-spacing="4" fill="#0f5e4b">JURNAL NaLI, VISUAL PENJELAS</text>
  <text x="70" y="150" font-family="Georgia, serif" font-size="34" font-weight="700" fill="#1c1c1c">Pemutihan karang</text>
  <g>
  <rect x="70" y="206" width="1060" height="360" fill="#cfeee6" fill-opacity="0.4"/>
  <g><path d="M260 520 q20 -90 60 0 q20 -70 56 0z" fill="#2dd4a7" fill-opacity="0.85"/><text x="320" y="552" text-anchor="middle" font-family="ui-monospace, SFMono-Regular, Menlo, monospace" font-size="13" fill="#0f5e4b">SEHAT</text></g>
  <g><path d="M620 520 q20 -90 60 0 q20 -70 56 0z" fill="#ffffff" stroke="#0f5e4b" stroke-opacity="0.5"/><text x="680" y="552" text-anchor="middle" font-family="ui-monospace, SFMono-Regular, Menlo, monospace" font-size="13" fill="#4f5b57">MEMUTIH</text></g>
  <rect x="900" y="250" width="40" height="240" fill="#eaf8f3" stroke="#0f5e4b" stroke-opacity="0.5"/>
  <rect x="900" y="250" width="40" height="90" fill="#2dd4a7" fill-opacity="0.8"/>
  <text x="960" y="270" font-family="ui-monospace, SFMono-Regular, Menlo, monospace" font-size="14" fill="#0f5e4b">SUHU NAIK</text>
  <text x="960" y="300" font-family="ui-monospace, SFMono-Regular, Menlo, monospace" font-size="13" fill="#4f5b57">AMBANG STRES</text>
  <g><rect x="70" y="176" width="169.6" height="30" fill="#eaf8f3" stroke="#0f5e4b" stroke-opacity="0.55" stroke-dasharray="6 6"/><text x="80" y="196" font-family="ui-monospace, SFMono-Regular, Menlo, monospace" font-size="14" font-weight="700" letter-spacing="1" fill="#0f5e4b">PEMUTIHAN KARANG</text></g>
  <text x="70" y="540" font-family="ui-monospace, SFMono-Regular, Menlo, monospace" font-size="16" fill="#1c1c1c">Karang memutih saat kehilangan alga simbiotik akibat panas.</text></g>
  <line x1="70" y1="600" x2="1130" y2="600" stroke="#0f5e4b" stroke-opacity="0.32" stroke-dasharray="7 8"/>
  <text x="70" y="628" font-family="ui-monospace, SFMono-Regular, Menlo, monospace" font-size="14" fill="#4f5b57">VISUAL PENJELAS, BUKAN FOTO LAPANGAN. NaLI by NatIve, non-AI, berdasarkan sumber yang dicantumkan.</text>
</svg>