<svg xmlns="http://www.w3.org/2000/svg" viewBox="0 0 1200 675" role="img" aria-label="Plastik dari darat ke laut">
  <rect width="1200" height="675" fill="#f7fbf8"/>
  <rect x="34" y="34" width="1132" height="607" fill="#ffffff" stroke="#0f5e4b" stroke-opacity="0.6" stroke-dasharray="12 10"/>
  <text x="70" y="96" font-family="ui-monospace, SFMono-Regular, Menlo, monospace" font-size="15" font-weight="700" letter-spacing="4" fill="#0f5e4b">JURNAL NaLI, VISUAL PENJELAS</text>
  <text x="70" y="150" font-family="Georgia, serif" font-size="34" font-weight="700" fill="#1c1c1c">Plastik dari darat ke laut</text>
  <g>
  <rect x="70" y="206" width="540" height="360" fill="#eaf8f3" fill-opacity="0.5"/>
  <rect x="610" y="206" width="520" height="360" fill="#cfeee6" fill-opacity="0.5"/>
  <text x="120" y="250" font-family="ui-monospace, SFMono-Regular, Menlo, monospace" font-size="15" fill="#0f5e4b">DARAT</text>
  <text x="660" y="250" font-family="ui-monospace, SFMono-Regular, Menlo, monospace" font-size="15" fill="#0f5e4b">LAUT</text>
  <path d="M180 430 q200 -10 380 30 q140 30 480 10" fill="none" stroke="#0f5e4b" stroke-width="3" stroke-dasharray="10 8"/>
  <polygon points="1030,470 1070,478 1032,494" fill="#0f5e4b"/>
  <g fill="#4f5b57"><circle cx="300" cy="440" r="8"/><circle cx="520" cy="470" r="8"/><circle cx="760" cy="470" r="8"/><circle cx="940" cy="466" r="8"/></g>
  <g><rect x="70" y="176" width="400" height="30" fill="#eaf8f3" stroke="#0f5e4b" stroke-opacity="0.55" stroke-dasharray="6 6"/><text x="80" y="196" font-family="ui-monospace, SFMono-Regular, Menlo, monospace" font-size="14" font-weight="700" letter-spacing="1" fill="#0f5e4b">ESTIMASI MODEL, BUKAN TIMBANGAN LANGSUNG</text></g>
  <text x="70" y="540" font-family="ui-monospace, SFMono-Regular, Menlo, monospace" font-size="16" fill="#1c1c1c">Sungai membawa sampah dari darat ke laut.</text></g>
  <line x1="70" y1="600" x2="1130" y2="600" stroke="#0f5e4b" stroke-opacity="0.32" stroke-dasharray="7 8"/>
  <text x="70" y="628" font-family="ui-monospace, SFMono-Regular, Menlo, monospace" font-size="14" fill="#4f5b57">VISUAL PENJELAS, BUKAN FOTO LAPANGAN. NaLI by NatIve, non-AI, berdasarkan sumber yang dicantumkan.</text>
</svg>