<svg xmlns="http://www.w3.org/2000/svg" viewBox="0 0 1200 675" role="img" aria-label="Segitiga Terumbu Karang">
  <rect width="1200" height="675" fill="#f7fbf8"/>
  <rect x="34" y="34" width="1132" height="607" fill="#ffffff" stroke="#0f5e4b" stroke-opacity="0.6" stroke-dasharray="12 10"/>
  <text x="70" y="96" font-family="ui-monospace, SFMono-Regular, Menlo, monospace" font-size="15" font-weight="700" letter-spacing="4" fill="#0f5e4b">JURNAL NaLI, VISUAL PENJELAS</text>
  <text x="70" y="150" font-family="Georgia, serif" font-size="34" font-weight="700" fill="#1c1c1c">Segitiga Terumbu Karang</text>
  <g>
  <rect x="70" y="206" width="1060" height="200" fill="#cfeee6" fill-opacity="0.5"/>
  <rect x="70" y="406" width="1060" height="160" fill="#eaf8f3" fill-opacity="0.5"/>
  <line x1="70" y1="406" x2="1130" y2="406" stroke="#0f5e4b" stroke-opacity="0.4" stroke-dasharray="6 6"/>
  <g fill="#2dd4a7" fill-opacity="0.8">
    <path d="M200 406 q10 -40 24 0 q10 -30 22 0z"/>
    <path d="M320 406 q8 -50 22 0 q10 -34 20 0z"/>
    <circle cx="460" cy="392" r="16"/>
    <path d="M600 406 q12 -46 26 0z"/>
    <path d="M760 406 q9 -38 20 0 q10 -28 18 0z"/>
    <circle cx="900" cy="394" r="14"/>
  </g>
  <g><rect x="70" y="176" width="236.79999999999998" height="30" fill="#eaf8f3" stroke="#0f5e4b" stroke-opacity="0.55" stroke-dasharray="6 6"/><text x="80" y="196" font-family="ui-monospace, SFMono-Regular, Menlo, monospace" font-size="14" font-weight="700" letter-spacing="1" fill="#0f5e4b">SEGITIGA TERUMBU KARANG</text></g>
  <text x="90" y="300" font-family="ui-monospace, SFMono-Regular, Menlo, monospace" font-size="15" fill="#0f5e4b">PERAIRAN DANGKAL</text>
  <text x="90" y="470" font-family="ui-monospace, SFMono-Regular, Menlo, monospace" font-size="15" fill="#4f5b57">DASAR LAUT</text>
  <text x="70" y="540" font-family="ui-monospace, SFMono-Regular, Menlo, monospace" font-size="16" fill="#1c1c1c">Keanekaragaman karang tertinggi dunia ada di perairan Indonesia.</text></g>
  <line x1="70" y1="600" x2="1130" y2="600" stroke="#0f5e4b" stroke-opacity="0.32" stroke-dasharray="7 8"/>
  <text x="70" y="628" font-family="ui-monospace, SFMono-Regular, Menlo, monospace" font-size="14" fill="#4f5b57">VISUAL PENJELAS, BUKAN FOTO LAPANGAN. NaLI by NatIve, non-AI, berdasarkan sumber yang dicantumkan.</text>
</svg>